<svg xmlns="http://www.w3.org/2000/svg" viewBox="0 0 103.467 66.213" height="66.213" width="103.467" xml:space="preserve"><path style="fill:#231f20;fill-opacity:1;fill-rule:nonzero;stroke:none" d="M253.941 213.152c0-12.769-9.742-48.043-51.07-48.043-36.117 0-58.969 24.024-58.969 62.832 0 36.625 23.356 62.832 58.969 62.832 41.156 0 50.567-31.082 50.738-42.335h-17.304c-.676 11.253-9.914 28.89-33.434 28.89-27.719 0-41.5-22.508-41.5-49.387 0-28.554 15.121-49.394 41.5-49.394 25.367 0 33.262 22.012 33.938 34.605h17.132m123.477 0c0-12.769-9.742-48.043-51.07-48.043-36.118 0-58.969 24.024-58.969 62.832 0 36.625 23.351 62.832 58.969 62.832 41.156 0 50.566-31.082 50.738-42.335h-17.305c-.676 11.253-9.914 28.89-33.433 28.89-27.719 0-41.5-22.508-41.5-49.387 0-28.554 15.125-49.394 41.5-49.394 25.367 0 33.261 22.012 33.933 34.605h17.137m43.168 74.762 58.977-98.781h.496v98.781h14.961V167.961h-20.84l-61.321 101.473h-.332V167.961h-14.949v119.953h23.008m169.18-73.922-21.836 56.953h-.332l-23.028-56.953Zm-11.758 73.922 48.555-119.953h-18.321l-13.097 31.582h-56.278l-13.105-31.582h-17.305l50.742 119.953h18.809" transform="matrix(.13333 0 0 -.13333 0 66.213)"/><path style="fill:#918f90;fill-opacity:1;fill-rule:nonzero;stroke:none" d="M599.121 126.398H179.688v8.711h419.433v-8.711m69.375 193.418H108.418v8.731h560.078v-8.731" transform="matrix(.13333 0 0 -.13333 0 66.213)"/><path style="fill:#231f20;fill-opacity:1;fill-rule:nonzero;stroke:none" d="M301.184 446.113c0-5.508-4.207-20.726-22.036-20.726-15.578 0-25.437 10.359-25.437 27.105 0 15.801 10.074 27.11 25.437 27.11 17.762 0 21.821-13.411 21.891-18.27h-7.465c-.293 4.859-4.277 12.469-14.426 12.469-11.957 0-17.902-9.715-17.902-21.309 0-12.32 6.524-21.308 17.902-21.308 10.946 0 14.352 9.496 14.641 14.929h7.395m22.484-19.496h-7.246v51.746h7.246v-51.746m56.176 36.387h-7.61c0 6.305-4.203 10.797-12.39 10.723-7.106 0-11.453-3.188-11.453-7.172 0-5.801 6.16-7.754 13.48-9.785 7.25-2.032 20.293-4.715 20.293-16.309 0-8.984-7.535-15.074-21.887-15.074-11.886 0-21.382 6.156-21.382 18.406h7.683c0-6.301 3.988-12.609 14.86-12.609 8.625 0 13.042 3.332 13.042 8.046 0 5.942-6.519 8.481-14.855 10.801-8.262 2.246-18.918 4.926-18.918 16.301 0 7.031 7.031 13.195 19.203 13.195 12.977 0 19.934-6.957 19.934-16.523m61.406-16.891c0-5.508-4.199-20.726-22.031-20.726-15.586 0-25.442 10.359-25.442 27.105 0 15.801 10.071 27.11 25.442 27.11 17.754 0 21.816-13.411 21.894-18.27h-7.468c-.293 4.859-4.282 12.469-14.426 12.469-11.953 0-17.91-9.715-17.91-21.309 0-12.32 6.523-21.308 17.91-21.308 10.937 0 14.355 9.496 14.636 14.929h7.395m37.773-14.929c12.032 0 17.911 9.855 17.911 21.308 0 11.594-5.95 21.309-17.911 21.309-11.953 0-17.89-9.715-17.89-21.309 0-12.32 6.512-21.308 17.89-21.308zm-25.429 21.308c0 16.16 9.629 27.11 25.429 27.11 15.157 0 25.45-10.223 25.45-27.11 0-17.031-10.442-27.105-25.45-27.105-15.214 0-25.429 10.359-25.429 27.105m-230.239-76.379c0-5.508-4.207-20.726-22.031-20.726-15.586 0-25.441 10.359-25.441 27.101 0 15.805 10.074 27.114 25.441 27.114 17.758 0 21.817-13.411 21.891-18.27h-7.469c-.293 4.859-4.277 12.469-14.422 12.469-11.961 0-17.902-9.715-17.902-21.313 0-12.316 6.519-21.304 17.902-21.304 10.942 0 14.352 9.496 14.637 14.929h7.394m15.239-19.496v51.746h32.832v-6.23H245.84v-15.727h23.699v-6.234H245.84v-17.32h26.168v-6.235h-33.414m55.894 45.516v-17.324h13.914c7.395 0 10.801 3.992 10.801 8.629 0 4.64-3.336 8.695-10.801 8.695h-13.914zm13.989-23.555h-13.989v-21.961h-7.246v51.746h21.02c12.898 0 18.48-6.515 18.48-14.855 0-10.727-8.336-13.043-10.726-13.551 0 0 0-.148 12.539-23.34H320l-11.523 21.961m71.117 29.785v-6.23h-17.539v-45.516h-7.246v45.516h-17.543v6.23h42.328m20.308-51.746h-7.246v51.746h7.246v-51.746m24.649 45.516v-15.727h22.695v-6.234h-22.695v-23.555h-7.246v51.746h32.832v-6.23h-25.586m48.066-45.516h-7.246v51.746h7.246v-51.746m17.403 0v51.746h32.832v-6.23h-25.586v-15.727h23.703v-6.234h-23.703v-17.32h26.172v-6.235H490.02m55.898 45.516v-39.281h10.937c12.032 0 17.911 8.187 17.911 19.636 0 11.598-6.016 19.645-18.203 19.645zm36.387-19.645c0-17.027-10.45-25.871-25.45-25.871h-18.183v51.746h17.891c15.515 0 25.742-9.054 25.742-25.875" transform="matrix(.13333 0 0 -.13333 0 66.213)"/><path style="fill:#15495d;fill-opacity:1;fill-rule:nonzero;stroke:none" d="M87.09 144.023C46.914 210.84 23.262 294.238 21.973 381.191c-4.082-4.953-34.512-37.39-16.114-108.41C52.93 91.211 178.926 19.219 234.2 0 172.657 35.574 123.263 83.867 87.09 144.023" transform="matrix(.13333 0 0 -.13333 0 66.213)"/><path style="fill:#15495d;fill-opacity:1;fill-rule:nonzero;stroke:none" d="M88.77 251.543c-21.075 78.027-21.641 160.422-1.72 245.09-5.605-3.574-42.812-30.207-41.972-102.141 2.168-185.769 99.258-293.426 146.328-329.598-49.336 54.376-83.828 117.047-102.637 186.649m600.137-107.52c40.176 66.817 63.809 150.215 65.117 237.168 4.082-4.953 34.512-37.39 16.094-108.41C723.066 91.211 597.07 19.219 541.797 0c61.543 35.574 110.937 83.867 147.109 144.023" transform="matrix(.13333 0 0 -.13333 0 66.213)"/><path style="fill:#15495d;fill-opacity:1;fill-rule:nonzero;stroke:none" d="M687.227 251.543c21.074 78.027 21.64 160.422 1.718 245.09 5.606-3.574 42.793-30.207 41.953-102.141-2.148-185.769-99.257-293.426-146.308-329.598 49.316 54.376 83.808 117.047 102.637 186.649" transform="matrix(.13333 0 0 -.13333 0 66.213)"/></svg>