<?xml version="1.0" encoding="UTF-8"?>
<svg version="1.1" xmlns="http://www.w3.org/2000/svg" width="600" height="600">
<path d="M0 0 C5.46768211 1.70558827 10.9415675 3.39127932 16.41416931 5.08099937 C18.59191111 5.75361916 20.7693857 6.42709928 22.94685364 7.10060501 C40.38479453 12.48981906 57.86530339 17.73785002 75.345047 22.98953629 C77.64497156 23.68055118 79.9448928 24.37157707 82.24479485 25.06266689 C83.73776377 25.51128119 85.23075091 25.95983487 86.72375679 26.40832615 C90.31893815 27.48865963 93.91348904 28.57101136 97.50669861 29.65788651 C98.88575246 30.07493077 100.26481124 30.49195878 101.64387512 30.90896988 C102.3126512 31.11127307 102.98142727 31.31357626 103.67046928 31.52200985 C108.15849374 32.87669913 112.65492968 34.1994186 117.15559387 35.51150894 C119.47398198 36.19809814 121.79234299 36.88477883 124.110672 37.57156754 C125.13553711 37.86327332 126.16040222 38.1549791 127.21632385 38.45552444 C140.971954 42.57040553 150.7418168 50.13276677 158.27082825 62.32156754 C162.09780572 70.93508909 163.02867435 79.22717781 162.93562317 88.56644058 C162.93606125 89.73847534 162.93649933 90.9105101 162.93695068 92.11806107 C162.93487701 95.95430101 162.91161273 99.79009236 162.88801575 103.62625504 C162.88241473 106.3009706 162.87799927 108.975662 162.87515259 111.65037918 C162.86587228 117.94704779 162.84131369 124.24355793 162.81110412 130.54015714 C162.77743412 137.71558577 162.76104262 144.89102244 162.74601781 152.06651056 C162.71475993 166.8117664 162.66207864 181.55689856 162.595047 196.30203629 C163.40792868 196.36725322 164.22081036 196.43247015 165.05832481 196.49966335 C166.13056612 196.5870543 167.20280743 196.67444525 168.30754089 196.76448441 C169.36792257 196.85032634 170.42830425 196.93616827 171.52081871 197.02461147 C175.54519344 197.38777949 179.51955615 197.93898157 183.5091095 198.57156754 C184.28966705 198.69384216 185.07022461 198.81611679 185.87443542 198.94209671 C187.50304872 199.19935824 189.13127594 199.45907563 190.7591095 199.72122574 C193.22097153 200.11468405 195.68511782 200.49072594 198.1497345 200.86648941 C210.59340318 202.82283049 222.9368497 205.19383158 231.3528595 215.44266129 C237.97681982 224.85060494 238.60741062 233.92061798 236.74879456 245.03091812 C236.35756592 247.15102373 235.9564743 249.26932549 235.54719543 251.38602066 C235.32928848 252.55160004 235.11138153 253.71717941 234.88687134 254.91807938 C234.29227935 258.08677271 233.68956067 261.25377444 233.08240414 264.42008018 C232.57434105 267.07571716 232.072155 269.73245162 231.56997037 272.38920546 C230.38417777 278.66233792 229.1892306 284.93367674 227.9881134 291.20389175 C226.75407354 297.64667168 225.53402215 304.09198528 224.32110381 310.53877211 C223.27458 316.09889823 222.22008985 321.65747201 221.15915895 327.21486712 C220.52764949 330.52301566 219.8988741 333.83161796 219.27747345 337.14168167 C218.58159365 340.83575315 217.87270152 344.5271018 217.16047668 348.21805191 C216.9597908 349.29782806 216.75910492 350.37760422 216.55233765 351.49010086 C214.54690412 361.74183644 211.8048433 371.31827761 203.595047 378.30203629 C190.12613674 386.64487438 177.37654229 384.69451062 162.595047 381.30203629 C162.6878595 383.25109879 162.6878595 383.25109879 162.782547 385.23953629 C162.68800576 418.75440504 144.40255626 450.13983254 122.595047 474.30203629 C122.11567688 474.84167007 121.63630676 475.38130386 121.14241028 475.93729019 C110.0263487 488.4387363 97.91772664 499.20811328 84.595047 509.30203629 C83.72372131 509.96670914 83.72372131 509.96670914 82.83479309 510.64480972 C65.071663 524.14340817 46.15966133 535.62085115 26.595047 546.30203629 C25.2944635 547.01722427 25.2944635 547.01722427 23.96760559 547.7468605 C5.07584151 558.08864436 -14.58395707 566.82217593 -34.654953 574.61453629 C-35.6363324 575.00592789 -36.61771179 575.39731949 -37.62882996 575.80057144 C-47.76051663 579.61933572 -54.60211408 576.74113732 -64.342453 572.92703629 C-66.06238464 572.2576503 -66.06238464 572.2576503 -67.81706238 571.57474136 C-109.37514837 555.17940246 -150.80060755 533.90506868 -185.404953 505.30203629 C-185.9107489 504.89485367 -186.4165448 504.48767105 -186.93766785 504.06814957 C-202.96559639 491.14334509 -218.79543258 476.38524695 -230.404953 459.30203629 C-230.77974792 458.7609523 -231.15454285 458.21986832 -231.54069519 457.66238785 C-243.6902506 440.03183 -252.76679527 420.47937233 -256.404953 399.30203629 C-256.53643738 398.54406754 -256.66792175 397.78609879 -256.8033905 397.00516129 C-257.57590631 391.78545989 -257.50197623 386.56285126 -257.404953 381.30203629 C-258.82034363 381.62688004 -258.82034363 381.62688004 -260.264328 381.95828629 C-273.48584808 384.82560389 -285.67908204 386.55912392 -297.6940155 378.82938004 C-306.22301814 372.07325997 -309.02352318 362.49336333 -310.9271698 352.1687355 C-311.13123538 351.12851683 -311.33530096 350.08829815 -311.54555035 349.01655769 C-311.96922701 346.84830775 -312.38651927 344.67880087 -312.79752731 342.50811386 C-313.37438622 339.46337205 -313.96849519 336.42264072 -314.56990051 333.38266373 C-315.74959404 327.40382918 -316.90237158 321.42000974 -318.04948425 315.43484879 C-318.25451757 314.36608379 -318.4595509 313.2973188 -318.67079735 312.19616699 C-319.74963126 306.56998414 -320.82576709 300.94329269 -321.89982605 295.31619644 C-322.7819766 290.69733822 -323.66961963 286.07958582 -324.56193542 281.46268082 C-325.65221175 275.82149602 -326.73344569 270.1786492 -327.80818748 264.53448486 C-328.21533523 262.40417462 -328.62556803 260.27445141 -329.03905678 258.14536285 C-329.61478036 255.17719898 -330.17880164 252.2070281 -330.74015808 249.23611832 C-330.90996689 248.3747023 -331.0797757 247.51328629 -331.25473022 246.62576675 C-333.31113955 235.57227831 -333.16154642 225.7859156 -326.967453 216.04031754 C-318.2985847 205.10003903 -306.01233978 202.98757214 -293.029953 201.05203629 C-291.50361158 200.80912067 -289.97756617 200.56433752 -288.451828 200.31766129 C-284.7869897 199.72957363 -281.11877177 199.1675307 -277.4485321 198.61429214 C-275.49198924 198.31533529 -273.53775064 198.00141336 -271.58366394 197.68680191 C-270.43929871 197.5031105 -269.29493347 197.3194191 -268.1158905 197.13016129 C-267.1263739 196.96935074 -266.1368573 196.80854019 -265.11735535 196.6428566 C-262.50986174 196.31521834 -260.0288677 196.27805288 -257.404953 196.30203629 C-257.40864017 195.69557172 -257.41232735 195.08910715 -257.41612625 194.46426487 C-257.50475873 179.65537576 -257.57079876 164.84651252 -257.61220169 150.03742313 C-257.63276 142.87561152 -257.66075033 135.7139778 -257.70671082 128.55228043 C-257.7467864 122.30456608 -257.77243464 116.05698066 -257.78130698 109.80914134 C-257.78648708 106.50592388 -257.80067083 103.20315753 -257.82787323 99.90003777 C-257.85713644 96.19763817 -257.86089932 92.49598897 -257.85905457 88.79349136 C-257.87343567 87.71814133 -257.88781677 86.64279129 -257.90263367 85.53485489 C-257.83647313 73.17101318 -254.30622441 62.8171844 -246.404953 53.30203629 C-245.88159363 52.65492691 -245.35823425 52.00781754 -244.8190155 51.34109879 C-237.00297588 42.61001062 -225.05897081 39.24536029 -214.1627655 36.03641129 C-212.86749296 35.64610529 -211.57251945 35.25480584 -210.27781677 34.86261368 C-206.76650873 33.80183874 -203.25136591 32.75434422 -199.73538971 31.70916367 C-195.99475328 30.59461134 -192.25788391 29.46757009 -188.52067566 28.34158707 C-182.86885053 26.63991458 -177.21581657 24.94235385 -171.56142998 23.24921227 C-159.40243407 19.60784604 -147.25439535 15.93075305 -135.108078 12.24734879 C-131.19128605 11.06005066 -127.27443737 9.87293971 -123.35758972 8.68582535 C-122.39601141 8.39438393 -121.4344331 8.1029425 -120.44371605 7.80266953 C-117.5558104 6.92740773 -114.6678856 6.05220917 -111.779953 5.17703629 C-110.35835751 4.74619987 -110.35835751 4.74619987 -108.90804291 4.3066597 C-103.41239988 2.64135075 -97.91625863 0.97770337 -92.41941071 -0.68362427 C-90.7441215 -1.19021036 -89.06899081 -1.69732101 -87.39403534 -2.20500946 C-54.52092022 -12.16790116 -32.51353703 -10.16196322 0 0 Z " fill="#002050" transform="translate(347.4049530029297,16.69796371459961)"/>
<path d="M0 0 C5.2224164 0.00567819 10.44478165 0.00231829 15.66719627 -0.00343323 C44.85583585 -0.03084315 73.97915423 0.18338234 103.10083008 2.38037109 C103.95058411 2.44317261 104.80033813 2.50597412 105.67584229 2.57067871 C112.31970352 3.06389046 118.960682 3.58961009 125.60083008 4.13037109 C126.6315564 4.21416016 127.66228271 4.29794922 128.72424316 4.38427734 C162.24559552 7.12938943 195.54765033 10.88453555 228.8303833 15.72937012 C231.45532226 16.10930995 234.08123367 16.48133776 236.70776367 16.85009766 C240.40033381 17.36963158 244.08973445 17.9069386 247.77688599 18.46362305 C249.6327604 18.74143899 251.49066307 19.00560417 253.34863281 19.26904297 C261.98979837 20.63547609 270.28038412 22.96205284 276.22583008 29.75537109 C281.8533675 38.26758775 277.89991118 50.40114799 276.10083008 59.69287109 C275.83030223 61.12964468 275.5606337 62.56658029 275.29174805 64.00366211 C274.56029136 67.89833142 273.81621857 71.79049093 273.06945801 75.68225098 C272.27391137 79.83819986 271.48895214 83.99615129 270.70239258 88.15380859 C269.71194753 93.38478259 268.71807702 98.61505147 267.71313477 103.84326172 C266.10954513 112.18770411 264.51892846 120.53358948 262.98959351 128.89201355 C262.28578559 132.73552926 261.57387997 136.57752713 260.86151123 140.41946411 C260.5250137 142.24691473 260.19243759 144.07509243 259.86407471 145.90402222 C255.97334846 167.55718463 255.97334846 167.55718463 250.56567383 173.28662109 C249.89665039 173.73005859 249.22762695 174.17349609 248.53833008 174.63037109 C247.86672852 175.09443359 247.19512695 175.55849609 246.50317383 176.03662109 C238.46317673 180.65920669 226.6773289 176.84645109 218.01489258 175.32958984 C203.45154026 172.84877311 188.8211464 170.95324729 174.16333008 169.13037109 C173.47229942 169.04404167 172.78126877 168.95771225 172.06929779 168.86876678 C152.98493954 166.48606477 133.89795453 164.31592793 114.72583008 162.75537109 C113.84444366 162.68205566 112.96305725 162.60874023 112.05496216 162.53320312 C105.24194027 161.97675614 98.4246441 161.53170485 91.60083008 161.13037109 C90.54662117 161.06822418 90.54662117 161.06822418 89.47111511 161.00482178 C63.63871816 159.49591161 37.87161068 158.8036206 11.99633789 158.86962891 C7.50028452 158.88102214 3.00446821 158.87421727 -1.49157715 158.86275101 C-35.18349282 158.79006845 -68.8218493 160.03032058 -102.39916992 162.88037109 C-103.38714569 162.96240784 -104.37512146 163.04444458 -105.39303589 163.12896729 C-140.42284817 166.06026027 -175.28353289 170.54934267 -210.01635742 175.93115234 C-210.71175125 176.03817978 -211.40714508 176.14520721 -212.12361145 176.25547791 C-215.26167073 176.74935524 -218.32283249 177.34511591 -221.39916992 178.13037109 C-227.25846836 178.69376517 -231.67927427 177.5916279 -236.39916992 174.13037109 C-240.23363074 170.0226619 -242.10089852 167.11392242 -243.37573242 161.53662109 C-243.53127594 160.86352905 -243.68681946 160.19043701 -243.84707642 159.49694824 C-246.50889323 147.6179903 -248.58301862 135.60239108 -250.77416992 123.63037109 C-251.26330303 120.97546357 -251.7540248 118.32085066 -252.24487305 115.66625977 C-253.2032222 110.48072703 -254.15905326 105.29473618 -255.11303711 100.10839844 C-256.68863417 91.54948372 -258.2896842 82.99546675 -259.89916992 74.44287109 C-260.52296182 71.12089153 -261.14668094 67.7989017 -261.76855469 64.4765625 C-262.24045512 61.97254884 -262.71795441 59.46989059 -263.19970703 56.96777344 C-263.33602539 56.25429245 -263.47234375 55.54081146 -263.61279297 54.80570984 C-263.99869242 52.78622623 -264.38720834 50.76724312 -264.77587891 48.74829102 C-267.00319726 35.81972437 -267.00319726 35.81972437 -263.02416992 29.75537109 C-256.61272631 22.67650333 -247.96188551 20.38847863 -238.80541992 19.10302734 C-237.80131577 18.94871246 -236.79721161 18.79439758 -235.76268005 18.63540649 C-232.47726336 18.13642862 -229.1887463 17.66358267 -225.89916992 17.19287109 C-223.58211319 16.85007383 -221.26513851 16.50672158 -218.94824219 16.1628418 C-175.52424889 9.79113792 -132.05605516 5.35138779 -88.27416992 2.50537109 C-87.31427155 2.44266022 -86.35437317 2.37994934 -85.36538696 2.31533813 C-78.71180959 1.88485502 -72.05662417 1.4956873 -65.39916992 1.13037109 C-64.51518524 1.07951355 -63.63120056 1.02865601 -62.72042847 0.97625732 C-41.83174614 -0.18980688 -20.9133833 -0.02289227 0 0 Z " fill="#FDFDFD" transform="translate(293.399169921875,210.86962890625)"/>
<path d="M0 0 C0.93420902 0.00026688 1.86841805 0.00053375 2.83093643 0.00080872 C29.42201468 0.01034448 55.97589137 0.02010338 82.50793457 1.99743652 C85.32491093 2.20702376 88.14240572 2.40870089 90.95996094 2.61035156 C116.42087138 4.4524798 141.75706239 6.82484836 167.0625 10.1875 C169.43606442 10.49452343 171.80975941 10.80053933 174.18359375 11.10546875 C179.47817971 11.7876483 184.77088469 12.48266325 190.0625 13.1875 C190.70057959 45.45013859 175.3624079 74.86019693 153.390625 97.765625 C152.28172205 98.90670893 151.17232033 100.0473083 150.0625 101.1875 C149.44568359 101.83009766 148.82886719 102.47269531 148.19335938 103.13476562 C139.89371441 111.76540341 131.44283794 119.77952575 121.80566406 126.89746094 C120.03225968 128.20987953 118.27736919 129.54451355 116.5234375 130.8828125 C100.32066225 143.13385137 82.79612574 153.33739909 65.0625 163.1875 C64.31661621 163.60708984 63.57073242 164.02667969 62.80224609 164.45898438 C52.01896546 170.49859409 40.87480436 175.60944663 29.5625 180.5625 C28.87586273 180.86363708 28.18922546 181.16477417 27.48178101 181.47503662 C23.0262046 183.42286383 18.55293855 185.32139152 14.0625 187.1875 C13.01707031 187.62868164 11.97164062 188.06986328 10.89453125 188.52441406 C-1.67204127 193.52618423 -12.63877441 187.31955493 -24.37109375 182.31640625 C-67.62524553 163.46602697 -108.63762723 139.90651271 -142.9375 107.1875 C-143.86046875 106.31738281 -144.7834375 105.44726562 -145.734375 104.55078125 C-161.75197089 89.05353098 -173.75711066 70.87907304 -181.9375 50.1875 C-182.26363281 49.40503906 -182.58976562 48.62257813 -182.92578125 47.81640625 C-184.83694785 42.78856796 -185.69954236 37.52985446 -186.625 32.25 C-186.75680664 31.51023926 -186.88861328 30.77047852 -187.02441406 30.00830078 C-187.94270802 24.37354013 -188.07828388 18.88961968 -187.9375 13.1875 C-153.82232162 8.18690382 -119.62457093 5.07894839 -85.25 2.5 C-84.45074097 2.43915222 -83.65148193 2.37830444 -82.82800293 2.31561279 C-55.22804526 0.23390772 -27.66321828 -0.01769713 0 0 Z " fill="#0064B4" transform="translate(298.9375,380.8125)"/>
<path d="M0 0 C3.32266764 -0.00281451 6.64532326 -0.00833348 9.96798706 -0.01401138 C33.29954591 -0.0429143 56.59112431 0.23448036 79.90280151 1.24322128 C81.34001305 1.3052955 81.34001305 1.3052955 82.80625916 1.36862373 C99.79164978 2.11986026 116.73058332 3.3074093 133.65963745 4.8755455 C136.96447981 5.17985895 140.26981051 5.47780174 143.57565308 5.77105331 C164.84306033 7.66168074 185.99698513 9.87727316 207.14059448 12.86577988 C211.16071413 13.41471915 215.18747466 13.88451566 219.21798706 14.3496666 C229.63472265 15.56941237 240.00984018 17.07433311 250.3626709 18.74767685 C251.89979801 18.99355467 253.43802547 19.23266803 254.97735596 19.46435165 C266.94307276 21.27814045 278.0839414 24.11627004 285.95358276 34.04790878 C293.2196419 45.48010508 291.8019027 56.67793429 289.3432312 69.39361191 C289.12532425 70.55919128 288.9074173 71.72477066 288.6829071 72.92567062 C288.08831512 76.09436396 287.48559644 79.26136568 286.8784399 82.42767143 C286.37037681 85.08330841 285.86819077 87.74004287 285.36600614 90.3967967 C284.18021353 96.66992917 282.98526637 102.94126799 281.78414917 109.211483 C280.55010931 115.65426293 279.33005792 122.09957652 278.11713958 128.54636335 C277.07061576 134.10648947 276.01612562 139.66506326 274.95519471 145.22245836 C274.32368525 148.53060691 273.69490987 151.83920921 273.07350922 155.14927292 C272.37762942 158.8433444 271.66873729 162.53469304 270.95651245 166.22564316 C270.75582657 167.30541931 270.55514069 168.38519547 270.34837341 169.49769211 C268.34293989 179.74942769 265.60087907 189.32586886 257.39108276 196.30962753 C243.92217251 204.65246563 231.17257806 202.70210186 216.39108276 199.30962753 C216.48389526 201.25869003 216.48389526 201.25869003 216.57858276 203.24712753 C216.48404153 236.76199629 198.19859202 268.14742379 176.39108276 292.30962753 C175.91171265 292.84926132 175.43234253 293.38889511 174.93844604 293.94488144 C163.82238447 306.44632755 151.71376241 317.21570453 138.39108276 327.30962753 C137.51975708 327.97430038 137.51975708 327.97430038 136.63082886 328.65240097 C118.86769876 342.15099941 99.9556971 353.62844239 80.39108276 364.30962753 C79.09049927 365.02481552 79.09049927 365.02481552 77.76364136 365.75445175 C58.87187728 376.09623561 39.2120787 384.82976718 19.14108276 392.62212753 C18.15970337 393.01351913 17.17832397 393.40491074 16.16720581 393.80816269 C6.03551914 397.62692697 -0.80607832 394.74872857 -10.54641724 390.93462753 C-11.69303833 390.48837021 -12.83965942 390.04211288 -14.02102661 389.58233261 C-55.5791126 373.18699371 -97.00457178 351.91265993 -131.60891724 323.30962753 C-132.11471313 322.90244492 -132.62050903 322.4952623 -133.14163208 322.07574081 C-149.16956063 309.15093633 -164.99939681 294.39283819 -176.60891724 277.30962753 C-176.98371216 276.76854355 -177.35850708 276.22745956 -177.74465942 275.6699791 C-189.89421483 258.03942125 -198.97075951 238.48696358 -202.60891724 217.30962753 C-202.8061438 216.17267441 -202.8061438 216.17267441 -203.00735474 215.01275253 C-203.77987054 209.79305114 -203.70594046 204.57044251 -203.60891724 199.30962753 C-204.55251099 199.52619003 -205.49610474 199.74275253 -206.46829224 199.96587753 C-219.68981231 202.83319514 -231.88304627 204.56671517 -243.89797974 196.83697128 C-252.42698238 190.08085121 -255.22748741 180.50095458 -257.13113403 170.17632675 C-257.4372324 168.61599874 -257.4372324 168.61599874 -257.74951458 167.02414894 C-258.17319124 164.855899 -258.59048351 162.68639212 -259.00149155 160.51570511 C-259.57835045 157.47096329 -260.17245943 154.43023196 -260.77386475 151.39025497 C-261.95355827 145.41142043 -263.10633581 139.42760099 -264.25344849 133.44244003 C-264.45848181 132.37367504 -264.66351513 131.30491005 -264.87476158 130.20375824 C-265.95359549 124.57757538 -267.02973132 118.95088394 -268.10379028 113.32378769 C-268.98594083 108.70492947 -269.87358387 104.08717707 -270.76589966 99.47027206 C-271.85617599 93.82908726 -272.93740992 88.18624045 -274.01215172 82.54207611 C-274.41929947 80.41176587 -274.82953226 78.28204266 -275.24302101 76.1529541 C-275.81874459 73.18479023 -276.38276587 70.21461935 -276.94412231 67.24370956 C-277.11393112 66.38229355 -277.28373993 65.52087753 -277.45869446 64.633358 C-279.51510379 53.57986956 -279.36551065 43.79350685 -273.17141724 34.04790878 C-264.82415072 23.51349792 -252.87619839 21.07438534 -240.29641724 19.18462753 C-238.73973313 18.93607857 -237.1832578 18.68621886 -235.62698364 18.43511581 C-230.95934019 17.69137241 -226.2858917 16.99198872 -221.60891724 16.30962753 C-220.92972229 16.21036972 -220.25052734 16.11111191 -219.55075073 16.00884628 C-211.48211147 14.83723222 -203.40154951 13.77761514 -195.31057739 12.77300644 C-191.65134361 12.31493852 -187.99543702 11.83534175 -184.33938599 11.35259628 C-158.65421388 8.02544108 -132.86031315 5.67808803 -107.04824829 3.58819199 C-104.84633077 3.40985034 -102.64457167 3.22953498 -100.44302368 3.04668808 C-66.9848163 0.28016669 -33.55244322 0.02593461 0 0 Z M-81.47703934 14.18836212 C-83.41222759 14.29843944 -85.34758483 14.40553579 -87.28295898 14.51229477 C-93.52001764 14.85831473 -99.75257416 15.24802174 -105.98391724 15.68462753 C-106.86963409 15.74554581 -107.75535095 15.80646408 -108.66790771 15.86922836 C-125.94844752 17.06888831 -143.1507661 18.78137234 -160.3520813 20.81109238 C-164.37045891 21.28482574 -168.39169985 21.73005997 -172.41360474 22.17290878 C-188.82608844 24.02091881 -205.17820705 26.30492429 -221.51513672 28.72649765 C-223.84889034 29.07057167 -226.18346409 29.4091331 -228.51885986 29.74187851 C-231.82121665 30.21474932 -235.11939704 30.71046105 -238.41751099 31.21197128 C-239.39855804 31.34846588 -240.3796051 31.48496048 -241.39038086 31.62559128 C-249.73731991 32.93796718 -257.43305428 35.54023756 -263.23391724 41.93462753 C-268.86145466 50.44684419 -264.90799834 62.58040443 -263.10891724 71.87212753 C-262.83838939 73.30890112 -262.56872086 74.74583673 -262.29983521 76.18291855 C-261.56837852 80.07758786 -260.82430573 83.96974737 -260.07754517 87.86150742 C-259.28199853 92.0174563 -258.49703929 96.17540773 -257.71047974 100.33306503 C-256.72003469 105.56403903 -255.72616417 110.79430791 -254.72122192 116.02251816 C-253.11763229 124.36696055 -251.52701562 132.71284591 -249.99768066 141.07126999 C-249.29387275 144.91478569 -248.58196713 148.75678357 -247.86959839 152.59872055 C-247.53310086 154.42617117 -247.20052475 156.25434887 -246.87216187 158.08327866 C-244.78411817 172.85291465 -244.78411817 172.85291465 -237.57376099 185.46587753 C-236.90473755 185.90931503 -236.23571411 186.35275253 -235.54641724 186.80962753 C-234.87481567 187.27369003 -234.20321411 187.73775253 -233.51126099 188.21587753 C-225.87853864 192.60430106 -216.59754662 189.56691129 -208.48391724 188.12212753 C-139.41262344 176.21236048 -69.06151828 170.86983615 0.99557495 171.04888535 C5.49164706 171.06027862 9.98748215 171.0534697 14.48354626 171.04201317 C49.42350934 170.96656252 84.26999052 172.35282291 119.07858276 175.43462753 C120.83978455 175.58736633 120.83978455 175.58736633 122.63656616 175.74319077 C142.86137467 177.5134738 163.00269766 179.819142 183.14108276 182.37212753 C183.80282375 182.45550621 184.46456474 182.53888489 185.14635849 182.62479019 C199.31675198 184.41096574 213.43260853 186.28765786 227.4437561 189.08771896 C236.64259198 190.95821785 236.64259198 190.95821785 245.51608276 188.68462753 C246.13741089 188.38298691 246.75873901 188.08134628 247.39889526 187.77056503 C252.55431928 183.98992075 254.96266947 179.86253973 256.36764526 173.71587753 C256.52318878 173.04278549 256.6787323 172.36969345 256.83898926 171.67620468 C259.50080607 159.79724674 261.57493146 147.78164752 263.76608276 135.80962753 C264.25521587 133.15472 264.74593764 130.5001071 265.23678589 127.8455162 C266.19513504 122.65998347 267.15096611 117.47399262 268.10494995 112.28765488 C269.68054701 103.72874016 271.28159704 95.17472319 272.89108276 86.62212753 C273.51487466 83.30014797 274.13859378 79.97815814 274.76046753 76.65581894 C275.23236796 74.15180528 275.70986725 71.64914703 276.19161987 69.14702988 C276.32793823 68.43354889 276.46425659 67.7200679 276.60470581 66.98496628 C276.99060526 64.96548267 277.37912118 62.94649956 277.76779175 60.92754745 C279.4738253 51.03253588 279.4738253 51.03253588 276.01608276 41.93462753 C266.99139891 32.1795454 254.07153545 31.59410937 241.64108276 29.87212753 C239.5835673 29.57575127 237.52619661 29.2783684 235.46896362 28.98003769 C230.14654439 28.21414646 224.82099243 27.47293908 219.49404907 26.739254 C216.53770279 26.32992806 213.58263465 25.91253519 210.62789917 25.49175644 C145.13496252 16.18820528 79.44021103 12.11736328 13.3288269 12.1243248 C9.26855981 12.12440562 5.20840661 12.11751325 1.14816284 12.10381699 C-26.44993927 12.01230461 -53.92205688 12.61923471 -81.47703934 14.18836212 Z M-71.5841713 184.17964935 C-73.49218193 184.30213373 -75.4004424 184.42070845 -77.30871582 184.53902817 C-84.66276512 184.99595455 -92.01150778 185.50648253 -99.35891724 186.05962753 C-100.44028961 186.14000259 -101.52166199 186.22037766 -102.63580322 186.30318832 C-129.29013747 188.31029544 -156.26042333 190.68421184 -182.60891724 195.30962753 C-183.56038761 229.66827985 -166.31534056 259.09866488 -143.39407349 283.39947128 C-142.46696471 284.37074356 -141.53858389 285.34080328 -140.60891724 286.30962753 C-139.70012817 287.2596666 -138.79133911 288.20970566 -137.85501099 289.18853378 C-131.79128059 295.39027226 -125.43438373 300.96551228 -118.60891724 306.30962753 C-117.20126099 307.44271347 -117.20126099 307.44271347 -115.76516724 308.59869003 C-84.6237613 333.23892617 -48.51681676 352.53927845 -11.76712036 367.42681503 C-9.73808612 368.25679103 -7.72763588 369.12077828 -5.71829224 369.99712753 C-4.58907349 370.47150253 -3.45985474 370.94587753 -2.29641724 371.43462753 C-1.37215942 371.82908066 -0.44790161 372.22353378 0.50436401 372.62994003 C9.17783647 374.67213788 17.13122159 370.26663716 24.95358276 366.93462753 C26.24996418 366.38896065 27.54635098 365.84330653 28.84274292 365.29766464 C48.73750744 356.87541181 67.76590647 347.26220051 86.39108276 336.30962753 C87.20979858 335.82993515 88.0285144 335.35024277 88.87203979 334.85601425 C109.894303 322.47339378 129.78858745 308.24661232 147.39108276 291.30962753 C148.02336792 290.70457382 148.65565308 290.09952011 149.30709839 289.47613144 C166.18005005 273.24622852 179.06169443 255.89573778 188.39108276 234.30962753 C188.79327026 233.39826035 189.19545776 232.48689316 189.60983276 231.54790878 C191.88923376 225.90984496 193.10664131 220.21605129 194.14108276 214.24712753 C194.33299194 213.14920883 194.33299194 213.14920883 194.52877808 212.02910995 C195.41365792 206.43380283 195.523804 200.96723897 195.39108276 195.30962753 C168.46053004 191.36215238 141.51908539 188.49836072 114.39108276 186.30962753 C113.47514343 186.235728 112.5592041 186.16182846 111.61550903 186.08568954 C105.31282385 185.58031243 99.00877115 185.0951736 92.70358276 184.62212753 C91.90432373 184.56127975 91.1050647 184.50043198 90.28158569 184.43774033 C64.43033781 182.48793031 38.61635236 182.12136708 12.7038269 182.1243248 C9.06022118 182.12440556 5.41674253 182.11752545 1.77316284 182.10381699 C-22.74392367 182.01318148 -47.11634955 182.60279014 -71.5841713 184.17964935 Z " fill="#515152" transform="translate(293.6089172363281,198.69037246704102)"/>
<path d="M0 0 C0.08975098 0.73412109 0.17950195 1.46824219 0.27197266 2.22460938 C2.06818325 16.5137666 3.8903631 29.88973749 10 43 C10.29390625 43.65468262 10.5878125 44.30936523 10.890625 44.98388672 C22.33496679 70.35177358 42.14947187 92.07441259 64 109 C64.93457031 109.75152344 65.86914062 110.50304687 66.83203125 111.27734375 C97.96150583 135.93316636 134.09292156 155.22998354 170.84179688 170.1171875 C172.87083112 170.9471635 174.88128136 171.81115075 176.890625 172.6875 C178.01984375 173.161875 179.1490625 173.63625 180.3125 174.125 C181.23675781 174.51945313 182.16101563 174.91390625 183.11328125 175.3203125 C191.78675371 177.36251034 199.74013883 172.95700962 207.5625 169.625 C208.85888142 169.07933312 210.15526821 168.53367899 211.45166016 167.98803711 C231.34642468 159.56578427 250.37482371 149.95257297 269 139 C269.81871582 138.52030762 270.63743164 138.04061523 271.48095703 137.54638672 C292.50776672 125.16108825 312.3848683 110.92965599 330 94 C330.59989746 93.42733398 331.19979492 92.85466797 331.81787109 92.26464844 C348.35906802 76.39489657 360.87420398 59.11504335 370 38 C370.4021875 37.08863281 370.804375 36.17726563 371.21875 35.23828125 C375.70328271 24.14585753 376.7485685 11.81257772 378 0 C385.16562789 -0.28100502 391.94546999 0.79556805 399 2 C400.94984515 35.43623344 383.32845768 68.58096972 361.77734375 92.91796875 C360.85237304 93.94604233 359.92657737 94.97337422 359 96 C358.52062988 96.53963379 358.04125977 97.07926758 357.54736328 97.63525391 C346.4313017 110.13670001 334.32267964 120.906077 321 131 C320.12867432 131.66467285 320.12867432 131.66467285 319.23974609 132.34277344 C301.476616 145.84137188 282.56461433 157.31881486 263 168 C262.13294434 168.47679199 261.26588867 168.95358398 260.37255859 169.44482422 C241.48079452 179.78660808 221.82099594 188.52013964 201.75 196.3125 C200.76862061 196.7038916 199.78724121 197.0952832 198.77612305 197.49853516 C188.64443638 201.31729944 181.80283892 198.43910104 172.0625 194.625 C170.91587891 194.17874268 169.76925781 193.73248535 168.58789062 193.27270508 C127.02980463 176.87736618 85.60434546 155.6030324 51 127 C50.24130615 126.38922607 50.24130615 126.38922607 49.46728516 125.76611328 C33.43935661 112.8413088 17.60952042 98.08321066 6 81 C5.62520508 80.45891602 5.25041016 79.91783203 4.86425781 79.36035156 C-7.28681292 61.72759479 -16.35698672 42.17841301 -20 21 C-20.13148437 20.25363281 -20.26296875 19.50726563 -20.3984375 18.73828125 C-21.2317554 13.1865823 -21.0925941 7.5967988 -21 2 C-19.00133314 1.65876419 -17.00097458 1.3274322 -15 1 C-13.329375 0.7215625 -13.329375 0.7215625 -11.625 0.4375 C-7.68605195 -0.03789028 -3.96323603 -0.06953046 0 0 Z " fill="#002050" transform="translate(111,395)"/>
<path d="M0 0 C0.66 0 1.32 0 2 0 C2.48919922 1.57587891 2.48919922 1.57587891 2.98828125 3.18359375 C3.42964033 4.60157718 3.87104928 6.0195451 4.3125 7.4375 C4.63250977 8.46907227 4.63250977 8.46907227 4.95898438 9.52148438 C6.57467422 14.70616075 8.28186247 19.8455874 10 25 C23.365 25.495 23.365 25.495 37 26 C31.375 31.625 31.375 31.625 28.23046875 33.89453125 C27.56982422 34.37470703 26.90917969 34.85488281 26.22851562 35.34960938 C25.55498047 35.83236328 24.88144531 36.31511719 24.1875 36.8125 C23.14819336 37.56563477 23.14819336 37.56563477 22.08789062 38.33398438 C20.39482309 39.5599988 18.69781244 40.7805649 17 42 C17.52349503 48.6198928 18.84725064 54.31765553 21.0625 60.5625 C21.48499023 61.78936523 21.48499023 61.78936523 21.91601562 63.04101562 C22.60235441 65.03023483 23.2999845 67.0155524 24 69 C21.10661685 67.63959382 18.60029129 66.07911178 16.03125 64.1796875 C15.29519531 63.64472656 14.55914062 63.10976563 13.80078125 62.55859375 C12.26319548 61.43346732 10.72934275 60.30322204 9.19921875 59.16796875 C8.46316406 58.63558594 7.72710937 58.10320313 6.96875 57.5546875 C5.97004883 56.81968018 5.97004883 56.81968018 4.95117188 56.06982422 C2.78630619 54.67948483 2.78630619 54.67948483 -1 55 C-3.13589162 56.18028216 -3.13589162 56.18028216 -5.22265625 57.84375 C-6.40118164 58.72353516 -6.40118164 58.72353516 -7.60351562 59.62109375 C-8.82071289 60.55115234 -8.82071289 60.55115234 -10.0625 61.5 C-11.6735368 62.7251521 -13.28922725 63.94421599 -14.91015625 65.15625 C-15.97955444 65.97319336 -15.97955444 65.97319336 -17.07055664 66.80664062 C-19 68 -19 68 -22 68 C-21.78794922 67.42556152 -21.57589844 66.85112305 -21.35742188 66.25927734 C-20.39496225 63.63472397 -19.44739494 61.00502688 -18.5 58.375 C-18.16613281 57.47136719 -17.83226562 56.56773437 -17.48828125 55.63671875 C-14.7792178 48.91597342 -14.7792178 48.91597342 -15 42 C-17.879647 39.19149443 -21.11008939 36.99522918 -24.4375 34.75 C-26.20924703 33.51880752 -27.97889216 32.28458298 -29.74609375 31.046875 C-30.53685303 30.50901367 -31.3276123 29.97115234 -32.14233398 29.41699219 C-34 28 -34 28 -35 26 C-26.09 25.67 -17.18 25.34 -8 25 C-7.05125 22.36 -6.1025 19.72 -5.125 17 C-4.82996582 16.1853125 -4.53493164 15.370625 -4.23095703 14.53125 C-2.52336112 9.73476182 -1.16056872 4.95776928 0 0 Z " fill="#F8FBFD" transform="translate(299,476)"/>
<path d="M0 0 C0.66 0 1.32 0 2 0 C2.82227255 2.33027792 3.63285098 4.66363617 4.4375 7 C4.66759766 7.64839844 4.89769531 8.29679687 5.13476562 8.96484375 C5.35712891 9.61582031 5.57949219 10.26679688 5.80859375 10.9375 C6.01282959 11.52402344 6.21706543 12.11054688 6.42749023 12.71484375 C7.27034953 16.07909238 7.5698197 19.55855763 8 23 C16.58 23 25.16 23 34 23 C31.38128442 25.61871558 29.24407153 27.68532751 26.328125 29.796875 C25.66425781 30.28027344 25.00039062 30.76367188 24.31640625 31.26171875 C23.29353516 31.99841797 23.29353516 31.99841797 22.25 32.75 C21.55261719 33.25660156 20.85523438 33.76320313 20.13671875 34.28515625 C18.42678278 35.52661661 16.71370384 36.76374599 15 38 C16.61116859 44.11329927 18.29289721 50.11617651 20.546875 56.02734375 C21.08210858 58.35745544 20.63943823 59.72857593 20 62 C19.48091064 61.59571777 18.96182129 61.19143555 18.42700195 60.77490234 C16.06959301 58.95576625 13.69177914 57.16542131 11.3125 55.375 C10.08756836 54.41980469 10.08756836 54.41980469 8.83789062 53.4453125 C8.04189453 52.85234375 7.24589844 52.259375 6.42578125 51.6484375 C5.69786377 51.09333496 4.96994629 50.53823242 4.2199707 49.96630859 C1.98846417 48.72201496 1.98846417 48.72201496 -0.54101562 49.671875 C-2.75849276 50.86955923 -4.75358654 52.09398646 -6.76953125 53.6015625 C-7.76049805 54.33632813 -7.76049805 54.33632813 -8.77148438 55.0859375 C-9.44501953 55.59382813 -10.11855469 56.10171875 -10.8125 56.625 C-11.50537109 57.140625 -12.19824219 57.65625 -12.91210938 58.1875 C-14.61173663 59.45342926 -16.30637435 60.72605265 -18 62 C-18.66 61.67 -19.32 61.34 -20 61 C-19.66226563 59.92621094 -19.32453125 58.85242188 -18.9765625 57.74609375 C-18.52599518 56.30991042 -18.07547697 54.87371168 -17.625 53.4375 C-17.40328125 52.73302734 -17.1815625 52.02855469 -16.953125 51.30273438 C-15.56894857 46.88558313 -14.25310767 42.45614457 -13 38 C-13.57556641 37.58113525 -14.15113281 37.16227051 -14.74414062 36.73071289 C-17.33188085 34.84464838 -19.91597619 32.95365256 -22.5 31.0625 C-23.40621094 30.40314453 -24.31242188 29.74378906 -25.24609375 29.06445312 C-26.10332031 28.43603516 -26.96054688 27.80761719 -27.84375 27.16015625 C-28.63974609 26.57886963 -29.43574219 25.99758301 -30.25585938 25.39868164 C-30.83142578 24.9371167 -31.40699219 24.47555176 -32 24 C-32 23.67 -32 23.34 -32 23 C-23.75 23 -15.5 23 -7 23 C-6.01 19.7 -5.02 16.4 -4 13 C-3.27363811 10.6241407 -2.54490527 8.24900328 -1.8125 5.875 C-1.46832031 4.75867188 -1.12414062 3.64234375 -0.76953125 2.4921875 C-0.38861328 1.25855469 -0.38861328 1.25855469 0 0 Z " fill="#F8FBFD" transform="translate(226,455)"/>
<path d="M0 0 C0.66 0 1.32 0 2 0 C3.17152378 3.45670732 4.33639077 6.91562122 5.5 10.375 C5.83386719 11.35984375 6.16773438 12.3446875 6.51171875 13.359375 C6.82753906 14.30039062 7.14335937 15.24140625 7.46875 16.2109375 C7.76201172 17.08024902 8.05527344 17.94956055 8.35742188 18.84521484 C9 21 9 21 9 23 C17.25 23 25.5 23 34 23 C28.375 28.625 28.375 28.625 25.44921875 30.67578125 C24.83369141 31.11083984 24.21816406 31.54589844 23.58398438 31.99414062 C22.64522461 32.64672852 22.64522461 32.64672852 21.6875 33.3125 C21.04232422 33.76689453 20.39714844 34.22128906 19.73242188 34.68945312 C18.15802858 35.79735952 16.57944354 36.89930525 15 38 C16.91072224 46.16399501 19.23522439 54.0846018 22 62 C16.75578546 60.28460272 12.93173285 56.96994345 8.72851562 53.54492188 C4.77914017 50.30857047 4.77914017 50.30857047 0 49 C-2.2027155 50.05426925 -2.2027155 50.05426925 -4.328125 51.74609375 C-5.52695312 52.63071289 -5.52695312 52.63071289 -6.75 53.53320312 C-7.575 54.16162109 -8.4 54.79003906 -9.25 55.4375 C-10.09046875 56.06205078 -10.9309375 56.68660156 -11.796875 57.33007812 C-13.87330978 58.87560628 -15.94022313 60.4323794 -18 62 C-18.92151483 58.72657832 -18.97085387 57.13924912 -17.75 53.9375 C-16.44395651 50.3938512 -15.3677443 46.83913531 -14.390625 43.19140625 C-14.12797852 42.21502197 -13.86533203 41.2386377 -13.59472656 40.23266602 C-13.3984668 39.49588623 -13.20220703 38.75910645 -13 38 C-13.57556641 37.58113525 -14.15113281 37.16227051 -14.74414062 36.73071289 C-17.33188085 34.84464838 -19.91597619 32.95365256 -22.5 31.0625 C-23.40621094 30.40314453 -24.31242187 29.74378906 -25.24609375 29.06445312 C-26.10332031 28.43603516 -26.96054687 27.80761719 -27.84375 27.16015625 C-28.63974609 26.57886963 -29.43574219 25.99758301 -30.25585938 25.39868164 C-30.83142578 24.9371167 -31.40699219 24.47555176 -32 24 C-32 23.67 -32 23.34 -32 23 C-19.625 22.505 -19.625 22.505 -7 22 C-5.44392259 17.00484332 -5.44392259 17.00484332 -3.88916016 12.00927734 C-2.63547598 7.99116344 -1.34622844 3.98835903 0 0 Z " fill="#F7FAFC" transform="translate(372,453)"/>
<path d="M0 0 C4.49322252 2.45855572 6.6968496 4.96554879 8.3125 9.8125 C8.89658643 16.2757515 9.0925611 22.47239709 5.69921875 28.1875 C2.54454873 31.88424008 -1.27137404 33.42003284 -5.99609375 34.1875 C-11.36675902 34.47731668 -14.52066467 33.39791645 -18.6875 29.8125 C-23.24691014 24.88340795 -24.0620081 20.74460185 -23.96484375 14.19140625 C-23.31135236 8.58610686 -20.99160152 4.85045835 -16.625 1.375 C-10.86346725 -1.68964508 -6.24080752 -2.00975157 0 0 Z " fill="#303030" transform="translate(439.6875,252.1875)"/>
<path d="M0 0 C3.67439063 2.58877522 6.0805343 4.69691625 7.75 8.9375 C8.64975165 14.63367208 9.03685377 20.24717133 6.5 25.55078125 C4.17851159 28.72541665 2.03536235 30.74725844 -1.25 32.9375 C-14.27258329 34.4743266 -14.27258329 34.4743266 -18.9375 30.875 C-23.65777115 24.87897989 -24.84894715 20.14529881 -24.58984375 12.58984375 C-24.04082698 8.30498875 -23.01343572 6.32270876 -20.25 2.9375 C-14.03749519 -1.77446753 -7.2927765 -2.38417693 0 0 Z " fill="#313131" transform="translate(302.25,248.0625)"/>
<path d="M0 0 C3.3 0 6.6 0 10 0 C11.00777029 2.74737377 12.00641446 5.49749952 13 8.25 C13.28617188 9.02730469 13.57234375 9.80460937 13.8671875 10.60546875 C14.13789063 11.35957031 14.40859375 12.11367187 14.6875 12.890625 C15.06455078 13.92751465 15.06455078 13.92751465 15.44921875 14.98535156 C16 17 16 17 16 21 C16.66 21 17.32 21 18 21 C18.2475 19.7625 18.495 18.525 18.75 17.25 C20.04818352 11.35173142 22.01439968 5.69655237 24 0 C27.63 0 31.26 0 35 0 C35 10.23 35 20.46 35 31 C32.69 31 30.38 31 28 31 C27.505 21.1 27.505 21.1 27 11 C24.69 17.6 22.38 24.2 20 31 C18.02 31 16.04 31 14 31 C11.69 24.73 9.38 18.46 7 12 C6.67 18.27 6.34 24.54 6 31 C4.02 31 2.04 31 0 31 C0 20.77 0 10.54 0 0 Z " fill="#F4F5F7" transform="translate(202,92)"/>
<path d="M0 0 C2.73083902 -0.13548815 5.45491807 -0.23429855 8.1875 -0.3125 C8.95642578 -0.35439453 9.72535156 -0.39628906 10.51757812 -0.43945312 C14.80793168 -0.5315208 16.48432237 -0.39394828 20.01171875 2.30078125 C22 5 22 5 22.625 8.5 C21.85313289 12.82245583 20.24292396 14.16244153 17 17 C17 19.87845727 18.39829929 20.77453131 20.3125 22.875 C27 30.24947589 27 30.24947589 27 33 C23.75390625 33.37109375 23.75390625 33.37109375 20 33 C17.77734375 30.41015625 17.77734375 30.41015625 15.9375 27.0625 C14.20026935 23.72673174 14.20026935 23.72673174 12 21 C10.02 20.67 8.04 20.34 6 20 C6.33 24.62 6.66 29.24 7 34 C5.02 34 3.04 34 1 34 C-0.05253638 22.64764338 -0.10313358 11.39053108 0 0 Z " fill="#313131" transform="translate(182,251)"/>
<path d="M0 0 C2.56314499 -0.08132187 5.12368418 -0.14064175 7.6875 -0.1875 C8.40873047 -0.21263672 9.12996094 -0.23777344 9.87304688 -0.26367188 C14.46146874 -0.32652697 17.36934474 0.13296248 21 3 C22.55024464 6.10048928 22.28992015 8.57894218 22 12 C20.125 14.9375 20.125 14.9375 18 17 C17.34 17 16.68 17 16 17 C16.62648437 17.81984375 17.25296875 18.6396875 17.8984375 19.484375 C18.72412933 20.57278696 19.54964068 21.66133587 20.375 22.75 C20.7875 23.28882813 21.2 23.82765625 21.625 24.3828125 C23.71684645 27.14944813 25.59564418 29.8209088 27 33 C23.9375 33.6875 23.9375 33.6875 20 33 C17.99450203 30.3157181 16.42723077 27.49645754 14.77734375 24.58203125 C12.93790506 21.90979174 12.134219 21.12214827 9.0625 20.3125 C8.051875 20.209375 7.04125 20.10625 6 20 C6.33 24.62 6.66 29.24 7 34 C5.02 34 3.04 34 1 34 C0.31583529 22.65019611 -0.15298709 11.37204047 0 0 Z " fill="#303030" transform="translate(207,303)"/>
<path d="M0 0 C2.31 0 4.62 0 7 0 C11.29 8.25 15.58 16.5 20 25 C21.64292546 23.35707454 21.34107718 21.35409962 21.53515625 19.08984375 C21.62216797 18.10048828 21.70917969 17.11113281 21.79882812 16.09179688 C21.88583984 15.05087891 21.97285156 14.00996094 22.0625 12.9375 C22.15337891 11.89271484 22.24425781 10.84792969 22.33789062 9.77148438 C22.56260908 7.1813085 22.7831231 4.59084233 23 2 C25.97 2.495 25.97 2.495 29 3 C28 14 27 25 26 36 C23.69 36 21.38 36 19 36 C18.64172119 35.27820557 18.28344238 34.55641113 17.91430664 33.81274414 C16.29910544 30.56163067 14.6808454 27.3120494 13.0625 24.0625 C12.21655273 22.35803711 12.21655273 22.35803711 11.35351562 20.61914062 C10.81533203 19.53955078 10.27714844 18.45996094 9.72265625 17.34765625 C9.22515869 16.34742432 8.72766113 15.34719238 8.21508789 14.31665039 C7.1988143 12.09956217 7.1988143 12.09956217 6 11 C4.81990204 13.36019593 4.70232315 15.16095717 4.46484375 17.7890625 C4.37783203 18.73007812 4.29082031 19.67109375 4.20117188 20.640625 C4.11416016 21.62546875 4.02714844 22.6103125 3.9375 23.625 C3.84662109 24.61757813 3.75574219 25.61015625 3.66210938 26.6328125 C3.43781564 29.08823868 3.21726893 31.54394389 3 34 C1.02 34 -0.96 34 -3 34 C-2.01 22.78 -1.02 11.56 0 0 Z " fill="#323232" transform="translate(457,254)"/>
<path d="M0 0 C2.31 0 4.62 0 7 0 C9.01519831 4.59083639 11.02439597 9.18422992 13.02880859 13.77978516 C13.94762051 15.88025664 14.87352015 17.97746694 15.80078125 20.07421875 C16.34659694 21.32020618 16.89218122 22.56629501 17.4375 23.8125 C17.93121094 24.93269531 18.42492187 26.05289062 18.93359375 27.20703125 C20 30 20 30 20 33 C18.02 33 16.04 33 14 33 C12.515 29.535 12.515 29.535 11 26 C6.48382401 25.92345464 2.40914783 25.89771304 -2 27 C-2.66 29.64 -3.32 32.28 -4 35 C-5.98 35 -7.96 35 -10 35 C-8.19650825 23.00677985 -3.91123852 11.44518156 0 0 Z " fill="#353535" transform="translate(182,304)"/>
<path d="M0 0 C0.37809814 0.73114014 0.75619629 1.46228027 1.14575195 2.21557617 C2.86633387 5.54041674 4.58939085 8.86396853 6.3125 12.1875 C6.90740234 13.33798828 7.50230469 14.48847656 8.11523438 15.67382812 C8.69208984 16.78564453 9.26894531 17.89746094 9.86328125 19.04296875 C10.65665894 20.57473755 10.65665894 20.57473755 11.46606445 22.13745117 C12.48522532 24.0393549 13.5625571 25.91125018 14.69604492 27.74731445 C16 30 16 30 16 32 C13.1875 32.3125 13.1875 32.3125 10 32 C8.11400657 29.61107499 7 28.08148442 7 25 C2.38 25.33 -2.24 25.66 -7 26 C-7.144375 27.299375 -7.28875 28.59875 -7.4375 29.9375 C-7.875 33.875 -7.875 33.875 -9 35 C-10.66617115 35.04063832 -12.33388095 35.042721 -14 35 C-12.87260681 27.02411382 -11.23853286 19.17429921 -9.5 11.3125 C-9.17962769 9.82339111 -9.17962769 9.82339111 -8.8527832 8.30419922 C-8.64355225 7.37494629 -8.43432129 6.44569336 -8.21875 5.48828125 C-8.03248047 4.64821533 -7.84621094 3.80814941 -7.65429688 2.94262695 C-6.3885064 -0.81554275 -3.45348723 -0.09088124 0 0 Z " fill="#313131" transform="translate(98,259)"/>
<path d="M0 0 C14 0 14 0 19 3 C20 4 20 4 20.3125 7.3125 C20 11 20 11 18 13.4375 C17.01 14.2109375 17.01 14.2109375 16 15 C17.45668783 17.96783129 19.01232086 20.86415313 20.625 23.75 C21.07101562 24.54921875 21.51703125 25.3484375 21.9765625 26.171875 C22.31429688 26.77515625 22.65203125 27.3784375 23 28 C17.89213132 28.88066701 17.89213132 28.88066701 15 28 C13.03561391 25.55649535 11.70422157 23.096566 10.32421875 20.28515625 C9.15334348 17.68318612 9.15334348 17.68318612 6 17 C6 20.63 6 24.26 6 28 C4.02 28 2.04 28 0 28 C0 18.76 0 9.52 0 0 Z " fill="#F5F8FC" transform="translate(330,408)"/>
<path d="M0 0 C1.65 0 3.3 0 5 0 C5 4.62 5 9.24 5 14 C10.28 14 15.56 14 21 14 C21 9.38 21 4.76 21 0 C22.98 0 24.96 0 27 0 C27 11.22 27 22.44 27 34 C25.35 34 23.7 34 22 34 C22 29.05 22 24.1 22 19 C16.72 19 11.44 19 6 19 C6 23.95 6 28.9 6 34 C4.02 34 2.04 34 0 34 C0 22.78 0 11.56 0 0 Z " fill="#313131" transform="translate(268,301)"/>
<path d="M0 0 C4.0226217 1.56435288 5.59149109 2.38723663 8 6 C8.79829231 10.500108 9.20812277 15.06847241 6.71484375 19.0546875 C3.73252241 21.89434655 1.07941005 23.35500547 -3.0625 23.5625 C-7.05834237 22.99166538 -9.61751549 22.17445433 -13 20 C-15.96266844 15.55599734 -15.76945894 11.21098923 -15 6 C-10.7316899 0.3838025 -6.87564633 -0.72846067 0 0 Z " fill="#F4F5F7" transform="translate(355,100)"/>
<path d="M0 0 C4.0226217 1.56435288 5.59149109 2.38723663 8 6 C8.79829231 10.500108 9.20812277 15.06847241 6.71484375 19.0546875 C3.73252241 21.89434655 1.07941005 23.35500547 -3.0625 23.5625 C-7.05834237 22.99166538 -9.61751549 22.17445433 -13 20 C-15.96266844 15.55599734 -15.76945894 11.21098923 -15 6 C-10.7316899 0.3838025 -6.87564633 -0.72846067 0 0 Z " fill="#F4F5F7" transform="translate(309,100)"/>
<path d="M0 0 C3.00616776 0.76105513 4.38922499 2.03805571 6.16015625 4.546875 C7.85270817 9.62453076 7.77266261 13.92373315 5.91015625 18.859375 C4.09477084 21.6472883 3.14429289 23.09513285 0.16015625 24.546875 C-4.89731501 25.18909357 -4.89731501 25.18909357 -7.83984375 24.546875 C-11.11923798 21.89544988 -13.60632821 19.6753117 -14.078125 15.375 C-14.24599934 9.54357573 -13.84462026 6.12376244 -9.83984375 1.546875 C-6.06934044 -0.96679387 -4.32832785 -0.59118624 0 0 Z " fill="#F8F8F8" transform="translate(435.83984375,256.453125)"/>
<path d="M0 0 C3.01764934 2.15546382 3.76607249 2.70559066 5 6 C5.74791217 10.93251169 6.43629657 16.40727347 3.9375 20.91796875 C1.35064311 23.54332054 -1.14257069 24.88307782 -4.75 25.375 C-9.2753858 24.8528401 -10.7671103 23.15770622 -14 20 C-15.97105392 16.05789216 -15.45383884 11.29634099 -15 7 C-12.14016919 -0.02081688 -7.02032605 -1.18619302 0 0 Z " fill="#F9F9F9" transform="translate(299,252)"/>
<path d="M0 0 C1.98 0 3.96 0 6 0 C6.2560584 4.04043108 6.47506671 8.08205908 6.6875 12.125 C6.76033203 13.26710938 6.83316406 14.40921875 6.90820312 15.5859375 C7.43615938 26.26928755 7.43615938 26.26928755 4 31 C-0.28046353 34.13204649 -4.42135341 34.5700085 -9.58984375 34.4296875 C-13.55978336 33.72191869 -15.28582926 31.92295311 -18 29 C-19.57550611 25.84898779 -19.66565184 22.40053398 -20.0625 18.9375 C-20.15192871 18.17123291 -20.24135742 17.40496582 -20.33349609 16.61547852 C-20.91660751 11.37691661 -21.19178774 6.27416279 -21 1 C-19.02 1 -17.04 1 -15 1 C-14.95512451 1.64026123 -14.91024902 2.28052246 -14.86401367 2.94018555 C-14.65194548 5.85711354 -14.41992464 8.77212634 -14.1875 11.6875 C-14.08211914 13.19860352 -14.08211914 13.19860352 -13.97460938 14.74023438 C-13.54202744 21.93456428 -13.54202744 21.93456428 -10 28 C-7.13128745 28.8123285 -5.0339093 28.33710103 -2 28 C0.26839977 26.16044022 0.26839977 26.16044022 0.22705078 23.38623047 C0.21657715 22.30744629 0.20610352 21.22866211 0.1953125 20.1171875 C0.18886719 18.95058594 0.18242187 17.78398437 0.17578125 16.58203125 C0.15902344 15.35871094 0.14226562 14.13539063 0.125 12.875 C0.11597656 11.64394531 0.10695312 10.41289062 0.09765625 9.14453125 C0.07402548 6.09616185 0.04108054 3.04817618 0 0 Z " fill="#323232" transform="translate(168,252)"/>
<path d="M0 0 C1.65 0 3.3 0 5 0 C5.01458252 0.74161377 5.02916504 1.48322754 5.04418945 2.24731445 C5.11859457 5.60290631 5.21528006 8.95749494 5.3125 12.3125 C5.33505859 13.47974609 5.35761719 14.64699219 5.38085938 15.84960938 C5.41630859 16.96787109 5.45175781 18.08613281 5.48828125 19.23828125 C5.51446533 20.26993408 5.54064941 21.30158691 5.56762695 22.36450195 C5.80112583 25.00873802 5.80112583 25.00873802 7.31323242 26.82885742 C10.21923945 28.84653229 12.60501564 28.48499777 16 28 C18.67930755 24.52725444 19.39069673 21.81305694 19.51171875 17.48046875 C19.54716797 16.45888672 19.58261719 15.43730469 19.61914062 14.38476562 C19.64169922 13.32966797 19.66425781 12.27457031 19.6875 11.1875 C19.72166016 10.11306641 19.75582031 9.03863281 19.79101562 7.93164062 C19.87326643 5.28786467 19.94249209 2.64441079 20 0 C21.98 0 23.96 0 26 0 C25.9187917 4.04246865 25.80597419 8.08346536 25.6875 12.125 C25.66494141 13.26710938 25.64238281 14.40921875 25.61914062 15.5859375 C25.27566878 26.32723875 25.27566878 26.32723875 22 31 C17.32553617 34.33890273 12.57216907 34.89712919 7 34 C3.59101153 32.32649657 1.62244254 31.18983915 -0.1484375 27.8046875 C-2.75159955 19.23097028 -1.15934336 8.79858798 0 0 Z " fill="#303030" transform="translate(341,248)"/>
<path d="M0 0 C2.206875 -0.061875 4.41375 -0.12375 6.6875 -0.1875 C8.54955078 -0.23970703 8.54955078 -0.23970703 10.44921875 -0.29296875 C14.21666932 0.01787701 16.02794917 0.7227143 19 3 C20.56935594 6.13871188 20.35201103 8.53855822 20 12 C17.8272578 14.63016161 16.05326212 16.47336894 13 18 C10.6670134 18.04022391 8.33293334 18.04320247 6 18 C6 20.97 6 23.94 6 27 C4.02 27 2.04 27 0 27 C0 18.09 0 9.18 0 0 Z " fill="#F9FBFD" transform="translate(276,408)"/>
<path d="M0 0 C-0.70113883 3.75525202 -2.3426952 6.73792631 -4.16015625 10.078125 C-4.78857422 11.23828125 -5.41699219 12.3984375 -6.06445312 13.59375 C-6.73037171 14.81255302 -7.39638859 16.03130235 -8.0625 17.25 C-8.73283338 18.48415158 -9.40275985 19.71852427 -10.07226562 20.953125 C-11.71083845 23.97092819 -13.35489905 26.98575052 -15 30 C-6.585 29.505 -6.585 29.505 2 29 C2 30.65 2 32.3 2 34 C-10.375 34.99 -10.375 34.99 -23 36 C-22.16652777 30.99916664 -21.72304702 28.99595194 -19.3125 24.92578125 C-18.77882813 24.01119141 -18.24515625 23.09660156 -17.6953125 22.15429688 C-17.13585937 21.21650391 -16.57640625 20.27871094 -16 19.3125 C-14.89358858 17.43491472 -13.78932155 15.55606368 -12.6875 13.67578125 C-12.19636719 12.84989502 -11.70523438 12.02400879 -11.19921875 11.1730957 C-9.87616647 8.93099757 -9.87616647 8.93099757 -9 6 C-16.92 6.495 -16.92 6.495 -25 7 C-25 5.35 -25 3.7 -25 2 C-21.95872183 1.66274935 -18.91705809 1.33007668 -15.875 1 C-15.0190625 0.90460938 -14.163125 0.80921875 -13.28125 0.7109375 C-8.82977526 0.23154791 -4.48558075 -0.11765458 0 0 Z " fill="#323232" transform="translate(141,254)"/>
<path d="M0 0 C12.42307692 0 12.42307692 0 16 3 C18.634936 5.634936 18.42070895 7.07258046 18.5625 10.75 C18.47031111 15.01117527 18.26827321 17.68396733 15.1875 20.75 C11 23 11 23 0 23 C0 15.41 0 7.82 0 0 Z " fill="#0B2A58" transform="translate(379,142)"/>
<path d="M0 0 C1.5778125 0.2475 1.5778125 0.2475 3.1875 0.5 C2.0681512 3.5782092 0.7426805 6.2442734 -1 9 C-3.00731266 12.87618997 -3.05671162 13.51973079 -1.8125 17.5 C-0.43170456 19.9179019 -0.43170456 19.9179019 1.25 22.1875 C4.1875 26.3 4.1875 26.3 4.1875 28.5 C1.0625 29.0625 1.0625 29.0625 -2.8125 28.5 C-5.27777449 25.75664682 -7.0601366 22.73513244 -8.8125 19.5 C-10.7925 23.955 -10.7925 23.955 -12.8125 28.5 C-15.4525 28.5 -18.0925 28.5 -20.8125 28.5 C-20.379375 27.68015625 -19.94625 26.8603125 -19.5 26.015625 C-18.943125 24.93796875 -18.38625 23.8603125 -17.8125 22.75 C-16.9771875 21.14898437 -16.9771875 21.14898437 -16.125 19.515625 C-14.54645098 16.43686532 -14.54645098 16.43686532 -14.8125 12.5 C-16.10637307 10.15076838 -16.10637307 10.15076838 -17.8125 7.875 C-20.8125 3.69444444 -20.8125 3.69444444 -20.8125 1.5 C-18.1725 1.5 -15.5325 1.5 -12.8125 1.5 C-11.4925 3.81 -10.1725 6.12 -8.8125 8.5 C-8.53277344 7.9225 -8.25304687 7.345 -7.96484375 6.75 C-4.64954974 0.60977702 -4.64954974 0.60977702 0 0 Z " fill="#F2F7FB" transform="translate(263.8125,407.5)"/>
<path d="M0 0 C5.94 0 11.88 0 18 0 C18 1.65 18 3.3 18 5 C14.04 5 10.08 5 6 5 C6 7.97 6 10.94 6 14 C9.96 14 13.92 14 18 14 C18 15.65 18 17.3 18 19 C14.04 19 10.08 19 6 19 C6 22.3 6 25.6 6 29 C10.62 29 15.24 29 20 29 C20 30.32 20 31.64 20 33 C13.65758005 34.15316726 7.43311296 34.09507063 1 34 C0.36046365 22.64822978 -0.1236177 11.37282852 0 0 Z " fill="#343434" transform="translate(212,249)"/>
<path d="M0 0 C5.94 0 11.88 0 18 0 C18 1.65 18 3.3 18 5 C13.71 5 9.42 5 5 5 C5 7.97 5 10.94 5 14 C8.96 14 12.92 14 17 14 C17 15.65 17 17.3 17 19 C13.04 19 9.08 19 5 19 C5 22.3 5 25.6 5 29 C9.29 29 13.58 29 18 29 C18 30.32 18 31.64 18 33 C11.73 33 5.46 33 -1 33 C-1.08595672 21.91158333 -0.86680508 11.05176473 0 0 Z " fill="#323232" transform="translate(348,302)"/>
<path d="M0 0 C1.93166016 0.01740234 1.93166016 0.01740234 3.90234375 0.03515625 C5.19269531 0.04417969 6.48304688 0.05320313 7.8125 0.0625 C8.81152344 0.07410156 9.81054688 0.08570313 10.83984375 0.09765625 C10.83984375 2.07765625 10.83984375 4.05765625 10.83984375 6.09765625 C9.84984375 5.76765625 8.85984375 5.43765625 7.83984375 5.09765625 C5.11652887 4.86577003 2.58945106 4.96672257 -0.16015625 5.09765625 C-0.82015625 5.75765625 -1.48015625 6.41765625 -2.16015625 7.09765625 C-2.256007 9.60803172 -2.256007 9.60803172 -1.16015625 12.09765625 C1.24939872 13.86272599 1.24939872 13.86272599 4.21484375 15.16015625 C8.08350687 17.00261982 10.65017595 18.33981052 12.83984375 22.09765625 C13.40234375 25.53515625 13.40234375 25.53515625 12.83984375 29.09765625 C10.71952355 32.02868712 10.0825732 32.84872936 6.83984375 34.09765625 C2.13916659 34.55664493 -2.45760492 34.53365439 -7.16015625 34.09765625 C-8.16015625 33.09765625 -8.16015625 33.09765625 -8.22265625 30.53515625 C-8.20203125 29.73078125 -8.18140625 28.92640625 -8.16015625 28.09765625 C-7.40089844 28.19304687 -6.64164063 28.2884375 -5.859375 28.38671875 C-4.36857422 28.55300781 -4.36857422 28.55300781 -2.84765625 28.72265625 C-1.86152344 28.83867187 -0.87539063 28.9546875 0.140625 29.07421875 C3.06641791 29.3524262 3.06641791 29.3524262 5.83984375 27.09765625 C5.75690102 24.6889145 5.75690102 24.6889145 4.83984375 22.09765625 C2.43028878 20.33258651 2.43028878 20.33258651 -0.53515625 19.03515625 C-4.40764477 17.19087082 -6.94987058 15.84489554 -9.16015625 12.09765625 C-9.66015625 9.16015625 -9.66015625 9.16015625 -9.16015625 6.09765625 C-6.72265625 3.28515625 -6.72265625 3.28515625 -4.16015625 1.09765625 C-3.16015625 0.09765625 -3.16015625 0.09765625 0 0 Z " fill="#313131" transform="translate(260.16015625,247.90234375)"/>
<path d="M0 0 C1.05960938 0.00676758 1.05960938 0.00676758 2.140625 0.01367188 C3.88545275 0.02546125 5.630237 0.04339676 7.375 0.0625 C7.375 1.7125 7.375 3.3625 7.375 5.0625 C3.90174819 6.2202506 1.01432552 6.13116652 -2.625 6.0625 C-2.625 7.7125 -2.625 9.3625 -2.625 11.0625 C0.345 11.0625 3.315 11.0625 6.375 11.0625 C6.375 12.7125 6.375 14.3625 6.375 16.0625 C3.735 16.0625 1.095 16.0625 -1.625 16.0625 C-1.625 18.0425 -1.625 20.0225 -1.625 22.0625 C1.675 22.0625 4.975 22.0625 8.375 22.0625 C8.375 24.0425 8.375 26.0225 8.375 28.0625 C2.765 28.0625 -2.845 28.0625 -8.625 28.0625 C-8.955 19.1525 -9.285 10.2425 -9.625 1.0625 C-6.55966836 -0.47016582 -3.35745728 -0.04026471 0 0 Z " fill="#EAF2F8" transform="translate(227.625,408.9375)"/>
<path d="M0 0 C0 1.98 0 3.96 0 6 C-0.99 5.67 -1.98 5.34 -3 5 C-4.72795352 4.93197033 -6.45835365 4.91504355 -8.1875 4.9375 C-9.08855469 4.94652344 -9.98960937 4.95554687 -10.91796875 4.96484375 C-11.94857422 4.98224609 -11.94857422 4.98224609 -13 5 C-13.40836864 7.32555666 -13.40836864 7.32555666 -13 10 C-10.88936208 12.24192909 -10.88936208 12.24192909 -8.125 14.125 C-5.06653545 16.36438857 -3.11852259 17.82221612 -1 21 C-0.77940678 24.12224253 -1.16403648 26.98716503 -2 30 C-4.36855165 32.60540682 -6.15830128 32.91279698 -9.6015625 33.26953125 C-13.83120099 33.42343993 -17.20080437 33.29773955 -21.1875 31.8125 C-23 30 -23 30 -23.3125 27.3125 C-23.209375 26.549375 -23.10625 25.78625 -23 25 C-22.34 25.309375 -21.68 25.61875 -21 25.9375 C-17.25484437 27.26390929 -13.96407788 27.67507558 -10 28 C-9.34 27.67 -8.68 27.34 -8 27 C-7.59163136 24.67444334 -7.59163136 24.67444334 -8 22 C-10.11063792 19.75807091 -10.11063792 19.75807091 -12.875 17.875 C-15.93346455 15.63561143 -17.88147741 14.17778388 -20 11 C-20.5 7.625 -20.5 7.625 -20 4 C-14.52348622 -2.59990122 -7.8790176 -2.03329486 0 0 Z " fill="#313131" transform="translate(513,260)"/>
<path d="M0 0 C1.59134766 -0.00386719 1.59134766 -0.00386719 3.21484375 -0.0078125 C6.0625 0.125 6.0625 0.125 9.0625 1.125 C9.0625 3.105 9.0625 5.085 9.0625 7.125 C8.0725 6.795 7.0825 6.465 6.0625 6.125 C0.85405093 5.56061697 -3.46431308 5.31619149 -8.125 7.875 C-10.92040397 12.8874485 -10.84216838 17.52688116 -9.9375 23.125 C-8.50192153 26.6440469 -8.50192153 26.6440469 -4.9375 28.125 C-0.57051127 28.51094452 3.69193404 28.41295823 8.0625 28.125 C8.0625 29.775 8.0625 31.425 8.0625 33.125 C3.64792215 35.33228892 -2.13245478 34.55172543 -6.9375 34.125 C-10.98495778 32.66215477 -13.70802687 29.76256142 -15.9375 26.125 C-17.94888947 20.0908316 -18.01506502 13.35994967 -15.25 7.625 C-10.35179421 2.32964239 -7.18983878 -0.01742991 0 0 Z " fill="#343434" transform="translate(387.9375,302.875)"/>
<path d="M0 0 C0 1.98 0 3.96 0 6 C-0.515625 5.835 -1.03125 5.67 -1.5625 5.5 C-6.52467572 4.4821178 -9.87810209 4.37672338 -14.375 6.875 C-17.03793194 8.73102809 -17.03793194 8.73102809 -18 11 C-18.41676403 15.97712427 -18.65548795 20.51025466 -16.625 25.125 C-15.12579415 27.09669252 -15.12579415 27.09669252 -13 28 C-10.7927077 28.07092842 -8.58332548 28.08415025 -6.375 28.0625 C-4.59222656 28.04896484 -4.59222656 28.04896484 -2.7734375 28.03515625 C-1.40058594 28.01775391 -1.40058594 28.01775391 0 28 C-0.33 29.65 -0.66 31.3 -1 33 C-5.62835514 34.54278505 -10.1664845 34.50478774 -15 34 C-20.14853681 31.4257316 -23.182008 28.45397599 -25 23 C-26.15441817 10.7961508 -26.15441817 10.7961508 -23 5.9375 C-16.95527238 -0.88828793 -8.57433195 -2.85811065 0 0 Z " fill="#353535" transform="translate(261,302)"/>
<path d="M0 0 C5.61 0 11.22 0 17 0 C17 1.65 17 3.3 17 5 C13.7 5 10.4 5 7 5 C7 6.98 7 8.96 7 11 C9.97 11 12.94 11 16 11 C16 12.65 16 14.3 16 16 C13.03 16 10.06 16 7 16 C7 17.98 7 19.96 7 22 C10.3 22 13.6 22 17 22 C17 23.65 17 25.3 17 27 C11.39 27 5.78 27 0 27 C0 18.09 0 9.18 0 0 Z " fill="#F0F6FA" transform="translate(304,408)"/>
<path d="M0 0 C3.47914941 -0.02887814 6.95826831 -0.04675687 10.4375 -0.0625 C11.92733398 -0.07506836 11.92733398 -0.07506836 13.44726562 -0.08789062 C14.39150391 -0.09111328 15.33574219 -0.09433594 16.30859375 -0.09765625 C17.62041626 -0.10551147 17.62041626 -0.10551147 18.95874023 -0.11352539 C21 0 21 0 22 1 C22.04063832 2.66617115 22.042721 4.33388095 22 6 C19.69 6 17.38 6 15 6 C14.67 13.26 14.34 20.52 14 28 C11.69 28 9.38 28 7 28 C6.89079578 20.25863399 7.02840067 12.68604474 8 5 C5.36 5 2.72 5 0 5 C0 3.35 0 1.7 0 0 Z " fill="#EEF4FA" transform="translate(357,409)"/>
<path d="M0 0 C16.8929385 -0.18451025 16.8929385 -0.18451025 24 1 C24 2.32 24 3.64 24 5 C21.03 5 18.06 5 15 5 C14.93941406 6.25554687 14.87882812 7.51109375 14.81640625 8.8046875 C14.39851636 17.22891038 13.96202174 25.61666769 13 34 C11.35 34 9.7 34 8 34 C7.88762623 24.27342548 8.07027443 14.69570954 9 5 C6.03 4.67 3.06 4.34 0 4 C0 2.68 0 1.36 0 0 Z " fill="#303030" transform="translate(402,304)"/>
<path d="M0 0 C0.33 1.65 0.66 3.3 1 5 C0.195625 5.268125 -0.60875 5.53625 -1.4375 5.8125 C-2.283125 6.204375 -3.12875 6.59625 -4 7 C-4.33 7.99 -4.66 8.98 -5 10 C-3.35 10 -1.7 10 0 10 C0 11.65 0 13.3 0 15 C-1.65 15 -3.3 15 -5 15 C-5 20.94 -5 26.88 -5 33 C-6.98 33 -8.96 33 -11 33 C-11 27.06 -11 21.12 -11 15 C-12.32 15 -13.64 15 -15 15 C-15 13.35 -15 11.7 -15 10 C-13.68 10 -12.36 10 -11 10 C-11.061875 9.071875 -11.12375 8.14375 -11.1875 7.1875 C-11 4 -11 4 -9.6875 2.1875 C-6.52064738 -0.04102592 -3.74110403 -0.10111092 0 0 Z " fill="#FDFDFE" transform="translate(381,90)"/>
<path d="M0 0 C8.25 0 16.5 0 25 0 C25 1.65 25 3.3 25 5 C21.7 5 18.4 5 15 5 C15.01160156 5.93199219 15.02320313 6.86398438 15.03515625 7.82421875 C15.09495359 16.272729 14.79517962 24.57961582 14 33 C12.35 33 10.7 33 9 33 C8.97051509 29.85418698 8.95304084 26.70841037 8.9375 23.5625 C8.92493164 22.24475586 8.92493164 22.24475586 8.91210938 20.90039062 C8.89100893 15.18216923 9.26719943 9.67199185 10 4 C6.7 4 3.4 4 0 4 C0 2.68 0 1.36 0 0 Z " fill="#2D2D2D" transform="translate(373,249)"/>
<path d="M0 0 C0.80824219 0.10183594 1.61648438 0.20367187 2.44921875 0.30859375 C3.06410156 0.39238281 3.67898438 0.47617188 4.3125 0.5625 C4.3125 2.2125 4.3125 3.8625 4.3125 5.5625 C1.6725 5.5625 -0.9675 5.5625 -3.6875 5.5625 C-4.0175 6.2225 -4.3475 6.8825 -4.6875 7.5625 C-4.04941406 7.76746094 -3.41132813 7.97242187 -2.75390625 8.18359375 C-1.92761719 8.45300781 -1.10132813 8.72242187 -0.25 9 C0.57371094 9.26683594 1.39742188 9.53367187 2.24609375 9.80859375 C4.3125 10.5625 4.3125 10.5625 5.3125 11.5625 C5.76851889 15.59066683 5.95556166 17.72651984 3.4375 21 C-0.92495661 23.18122831 -4.88889866 23.08057908 -9.6875 22.5625 C-10.3475 22.2325 -11.0075 21.9025 -11.6875 21.5625 C-11.6875 19.5825 -11.6875 17.6025 -11.6875 15.5625 C-10.6975 15.8925 -9.7075 16.2225 -8.6875 16.5625 C-6.35450175 16.60204234 -4.02041811 16.60651732 -1.6875 16.5625 C-1.3575 15.9025 -1.0275 15.2425 -0.6875 14.5625 C-1.409375 14.459375 -2.13125 14.35625 -2.875 14.25 C-6.07772322 13.4671121 -8.11289682 12.63648589 -10.6875 10.5625 C-11.75 7.625 -11.75 7.625 -11.6875 4.5625 C-8.35093077 0.15346209 -5.32142022 -0.69409829 0 0 Z " fill="#F2F4F6" transform="translate(331.6875,100.4375)"/>
<path d="M0 0 C0 2.31 0 4.62 0 7 C1.65 7 3.3 7 5 7 C5 8.65 5 10.3 5 12 C3.35 12 1.7 12 0 12 C0.33 15.96 0.66 19.92 1 24 C2.32 24.33 3.64 24.66 5 25 C5 26.65 5 28.3 5 30 C3.7625 30.103125 2.525 30.20625 1.25 30.3125 C0.55390625 30.37050781 -0.1421875 30.42851563 -0.859375 30.48828125 C-3 30 -3 30 -5.25 27.90625 C-7.37934776 24.37001176 -7.41531577 22.27906521 -7.25 18.1875 C-7.21390625 17.02605469 -7.1778125 15.86460938 -7.140625 14.66796875 C-7.07101562 13.34732422 -7.07101562 13.34732422 -7 12 C-7.99 12 -8.98 12 -10 12 C-10 10.35 -10 8.7 -10 7 C-9.01 7 -8.02 7 -7 7 C-7 5.35 -7 3.7 -7 2 C-2.25 0 -2.25 0 0 0 Z " fill="#F4F6F8" transform="translate(394,93)"/>
<path d="M0 0 C8.25 0 16.5 0 25 0 C25 1.32 25 2.64 25 4 C21.7 4 18.4 4 15 4 C15 13.57 15 23.14 15 33 C13.35 33 11.7 33 10 33 C10 23.43 10 13.86 10 4 C6.7 4 3.4 4 0 4 C0 2.68 0 1.36 0 0 Z " fill="#282828" transform="translate(317,302)"/>
<path d="M0 0 C1.65 0 3.3 0 5 0 C5 9.57 5 19.14 5 29 C9.29 29 13.58 29 18 29 C18 30.32 18 31.64 18 33 C11.73 33 5.46 33 -1 33 C-1.08032843 21.91467729 -1.00885038 11.04330865 0 0 Z " fill="#2F2F2F" transform="translate(318,248)"/>
<path d="M0 0 C10 0 10 0 14 3 C13.33035714 10.09821429 13.33035714 10.09821429 10 13 C10.433125 13.55429688 10.86625 14.10859375 11.3125 14.6796875 C12.1478125 15.76636719 12.1478125 15.76636719 13 16.875 C13.556875 17.59429687 14.11375 18.31359375 14.6875 19.0546875 C16 21 16 21 16 23 C15.01 23 14.02 23 13 23 C11.32640919 20.79086013 9.99970177 18.45549182 8.59765625 16.06640625 C7.00201192 13.56193823 7.00201192 13.56193823 3 13 C3 16.3 3 19.6 3 23 C2.01 23 1.02 23 0 23 C0 15.41 0 7.82 0 0 Z " fill="#EFF1F4" transform="translate(254,142)"/>
<path d="M0 0 C0 1.98 0 3.96 0 6 C-2.01822917 5.90234375 -4.03645833 5.8046875 -6.0546875 5.70703125 C-7.01761719 5.85205078 -7.01761719 5.85205078 -8 6 C-10.38798682 8.90585687 -10.38798682 8.90585687 -9.6875 12.625 C-9.35886877 15.82504312 -9.35886877 15.82504312 -8 17 C-5.32941149 17.14115161 -2.67567762 17.04247107 0 17 C0.042721 18.66611905 0.04063832 20.33382885 0 22 C-1 23 -1 23 -4.6875 23.25 C-8.77033487 23.19868969 -11.5241453 22.23447802 -15 20 C-17.96768598 15.54847103 -17.75531806 11.21856114 -17 6 C-14.89539585 3.07693868 -13.44591209 1.64816749 -10.1875 0.1875 C-6.78329487 -0.10428901 -3.41628712 -0.05693812 0 0 Z " fill="#F7F8FA" transform="translate(272,100)"/>
<path d="M0 0 C1.98 0 3.96 0 6 0 C6 11.22 6 22.44 6 34 C4.02 34 2.04 34 0 34 C0 22.78 0 11.56 0 0 Z " fill="#353535" transform="translate(305,301)"/>
<path d="M0 0 C2.31 0 4.62 0 7 0 C7.33 0.66 7.66 1.32 8 2 C8.66 1.34 9.32 0.68 10 0 C11.32 0 12.64 0 14 0 C14 1.98 14 3.96 14 6 C12.02 6.66 10.04 7.32 8 8 C7.67 12.95 7.34 17.9 7 23 C4.69 23 2.38 23 0 23 C0 15.41 0 7.82 0 0 Z " fill="#F5F6F8" transform="translate(277,100)"/>
<path d="M0 0 C1.98 0 3.96 0 6 0 C5.48387169 11.01439772 4.94237063 22.0123595 4 33 C2.02 33 0.04 33 -2 33 C-1.86061293 28.62476975 -1.71235541 24.24988322 -1.5625 19.875 C-1.52318359 18.6375 -1.48386719 17.4 -1.44335938 16.125 C-1.40146484 14.92617188 -1.35957031 13.72734375 -1.31640625 12.4921875 C-1.27974854 11.39245605 -1.24309082 10.29272461 -1.20532227 9.15966797 C-1.00316521 6.04870884 -0.56710106 3.06355662 0 0 Z " fill="#323232" transform="translate(404,250)"/>
<path d="M0 0 C12.42307692 0 12.42307692 0 16 3 C18.634936 5.634936 18.42070895 7.07258046 18.5625 10.75 C18.47031111 15.01117527 18.26827321 17.68396733 15.1875 20.75 C11 23 11 23 0 23 C0 15.41 0 7.82 0 0 Z M3 2 C3 8.27 3 14.54 3 21 C9.1683564 21 10.41855919 20.62253459 15 17 C16.55024464 13.89951072 16.28992015 11.42105782 16 8 C14.20437595 5.24670979 12.94745078 3.47372539 10 2 C7.69 2 5.38 2 3 2 Z " fill="#F0F2F4" transform="translate(379,142)"/>
<path d="M0 0 C2.31 0 4.62 0 7 0 C7 7.59 7 15.18 7 23 C4.69 23 2.38 23 0 23 C0 15.41 0 7.82 0 0 Z " fill="#F0F2F5" transform="translate(243,100)"/>
<path d="M0 0 C3.96 0 7.92 0 12 0 C12 0.66 12 1.32 12 2 C9.03 2 6.06 2 3 2 C3 4.64 3 7.28 3 10 C5.64 10 8.28 10 11 10 C11 10.66 11 11.32 11 12 C8.36 12 5.72 12 3 12 C3 14.97 3 17.94 3 21 C5.97 21 8.94 21 12 21 C12 21.66 12 22.32 12 23 C8.04 23 4.08 23 0 23 C0 15.41 0 7.82 0 0 Z " fill="#F5F6F8" transform="translate(356,142)"/>
<path d="M0 0 C3.96 0 7.92 0 12 0 C12 0.66 12 1.32 12 2 C9.03 2 6.06 2 3 2 C3 4.64 3 7.28 3 10 C5.64 10 8.28 10 11 10 C11 10.66 11 11.32 11 12 C8.36 12 5.72 12 3 12 C3 14.97 3 17.94 3 21 C5.97 21 8.94 21 12 21 C12 21.66 12 22.32 12 23 C8.04 23 4.08 23 0 23 C0 15.41 0 7.82 0 0 Z " fill="#F5F6F8" transform="translate(230,142)"/>
<path d="M0 0 C1.51400391 0.01740234 1.51400391 0.01740234 3.05859375 0.03515625 C4.07050781 0.04417969 5.08242187 0.05320313 6.125 0.0625 C7.29869141 0.07990234 7.29869141 0.07990234 8.49609375 0.09765625 C8.49609375 1.08765625 8.49609375 2.07765625 8.49609375 3.09765625 C7.59117187 3.04544922 7.59117187 3.04544922 6.66796875 2.9921875 C5.86875 2.96511719 5.06953125 2.93804687 4.24609375 2.91015625 C3.4571875 2.87535156 2.66828125 2.84054688 1.85546875 2.8046875 C-1.15678286 3.17872537 -2.4205708 3.89204829 -4.50390625 6.09765625 C-5.0998848 8.72721571 -5.0998848 8.72721571 -4.94140625 11.59765625 C-4.94011719 12.55671875 -4.93882812 13.51578125 -4.9375 14.50390625 C-4.68426642 17.09159806 -4.68426642 17.09159806 -3.30078125 18.9296875 C-0.86759439 20.51125896 0.80741393 20.3972152 3.68359375 20.28515625 C4.58464844 20.25808594 5.48570312 20.23101562 6.4140625 20.203125 C7.10113281 20.16832031 7.78820312 20.13351563 8.49609375 20.09765625 C8.16609375 21.08765625 7.83609375 22.07765625 7.49609375 23.09765625 C-1.47915895 23.72505256 -1.47915895 23.72505256 -5.56640625 21.22265625 C-9.12420403 17.32055546 -8.88732347 13.92593504 -8.8671875 8.8046875 C-8.50390625 6.09765625 -8.50390625 6.09765625 -6.06640625 2.97265625 C-5.22078125 2.35390625 -4.37515625 1.73515625 -3.50390625 1.09765625 C-2.50390625 0.09765625 -2.50390625 0.09765625 0 0 Z " fill="#F2F4F6" transform="translate(210.50390625,141.90234375)"/>
<path d="M0 0 C3.96 0 7.92 0 12 0 C12 0.66 12 1.32 12 2 C9.03 2 6.06 2 3 2 C3 4.64 3 7.28 3 10 C5.64 10 8.28 10 11 10 C11 10.99 11 11.98 11 13 C8.36 13 5.72 13 3 13 C3 16.3 3 19.6 3 23 C2.01 23 1.02 23 0 23 C0 15.41 0 7.82 0 0 Z " fill="#E8EBEF" transform="translate(318,142)"/>
<path d="M0 0 C1.258125 -0.04125 2.51625 -0.0825 3.8125 -0.125 C4.52019531 -0.14820313 5.22789062 -0.17140625 5.95703125 -0.1953125 C8 0 8 0 11 2 C11.39570119 5.0996593 11.49754211 7.12198451 9.9375 9.875 C6.96762823 11.59944167 4.35341985 11.24840147 1 11 C0 10 0 10 -0.09765625 7.71484375 C-0.08605469 6.79832031 -0.07445312 5.88179688 -0.0625 4.9375 C-0.05347656 4.01839844 -0.04445312 3.09929687 -0.03515625 2.15234375 C-0.02355469 1.44207031 -0.01195312 0.73179687 0 0 Z " fill="#EFEFEF" transform="translate(187,255)"/>
<path d="M0 0 C2.5 0.25 2.5 0.25 4.5 2.25 C4.765625 4.34375 4.765625 4.34375 4.75 6.75 C4.75515625 7.5440625 4.7603125 8.338125 4.765625 9.15625 C4.5 11.25 4.5 11.25 2.5 13.25 C0.0625 13.625 0.0625 13.625 -2.5 13.25 C-4.375 11.6875 -4.375 11.6875 -5.5 9.25 C-5.04766031 0.50476603 -5.04766031 0.50476603 0 0 Z " fill="#0B2A58" transform="translate(351.5,104.75)"/>
<path d="M0 0 C2.5 0.25 2.5 0.25 4.5 2.25 C4.765625 4.34375 4.765625 4.34375 4.75 6.75 C4.75515625 7.5440625 4.7603125 8.338125 4.765625 9.15625 C4.5 11.25 4.5 11.25 2.5 13.25 C0.0625 13.625 0.0625 13.625 -2.5 13.25 C-4.375 11.6875 -4.375 11.6875 -5.5 9.25 C-5.04766031 0.50476603 -5.04766031 0.50476603 0 0 Z " fill="#0B2A58" transform="translate(305.5,104.75)"/>
<path d="M0 0 C6.625 -0.25 6.625 -0.25 10 2 C10.3125 5.5 10.3125 5.5 10 9 C8 11 8 11 6.0546875 11.1953125 C4.03645833 11.13020833 2.01822917 11.06510417 0 11 C0 7.37 0 3.74 0 0 Z " fill="#F4F4F4" transform="translate(213,307)"/>
<path d="M0 0 C5.28 0 10.56 0 16 0 C16 0.66 16 1.32 16 2 C13.69 2 11.38 2 9 2 C9 8.93 9 15.86 9 23 C8.01 23 7.02 23 6 23 C6 16.07 6 9.14 6 2 C4.02 2 2.04 2 0 2 C0 1.34 0 0.68 0 0 Z " fill="#EEF0F3" transform="translate(277,142)"/>
<path d="M0 0 C1.89668064 2.84502097 3.23263478 5.57299885 4.625 8.6875 C5.29402344 10.17830078 5.29402344 10.17830078 5.9765625 11.69921875 C6.31429687 12.45847656 6.65203125 13.21773438 7 14 C3.7 14.66 0.4 15.32 -3 16 C-2.855625 15.01 -2.71125 14.02 -2.5625 13 C-2.15860169 10.21253281 -1.8182336 7.42343513 -1.5 4.625 C-1 1 -1 1 0 0 Z " fill="#EAEAEA" transform="translate(95,265)"/>
<path d="M0 0 C2.7920147 1.39600735 3.00162933 3.00416384 4.125 5.875 C4.47820312 6.75929688 4.83140625 7.64359375 5.1953125 8.5546875 C6 11 6 11 6 14 C3.03 14 0.06 14 -3 14 C-2.14285714 4.42857143 -2.14285714 4.42857143 0 0 Z " fill="#F2F2F2" transform="translate(185,311)"/>
<path d="M0 0 C0.99 0 1.98 0 3 0 C3 7.59 3 15.18 3 23 C2.01 23 1.02 23 0 23 C0 15.41 0 7.82 0 0 Z " fill="#E8EBEF" transform="translate(341,142)"/>
<path d="M0 0 C0.99 0 1.98 0 3 0 C3 7.59 3 15.18 3 23 C2.01 23 1.02 23 0 23 C0 15.41 0 7.82 0 0 Z " fill="#E8EBEF" transform="translate(303,142)"/>
<path d="M0 0 C2.875 -0.125 2.875 -0.125 6 0 C8 2 8 2 8.25 4.5 C8 7 8 7 6 9 C2.875 9.125 2.875 9.125 0 9 C0 6.03 0 3.06 0 0 Z " fill="#14325E" transform="translate(257,144)"/>
<path d="M0 0 C1.51400391 0.01740234 1.51400391 0.01740234 3.05859375 0.03515625 C4.07050781 0.04417969 5.08242187 0.05320313 6.125 0.0625 C7.29869141 0.07990234 7.29869141 0.07990234 8.49609375 0.09765625 C8.49609375 1.08765625 8.49609375 2.07765625 8.49609375 3.09765625 C7.59117187 3.04544922 7.59117187 3.04544922 6.66796875 2.9921875 C3.18404962 2.87418379 0.28341525 2.80241069 -3.00390625 4.03515625 C-5.41943503 7.35650832 -5.33550209 11.08121707 -5.50390625 15.09765625 C-5.83390625 15.09765625 -6.16390625 15.09765625 -6.50390625 15.09765625 C-6.72046875 13.70546875 -6.72046875 13.70546875 -6.94140625 12.28515625 C-7.42490736 9.09040514 -7.42490736 9.09040514 -8.50390625 6.09765625 C-2.50390625 0.09765625 -2.50390625 0.09765625 0 0 Z " fill="#CDD3DC" transform="translate(210.50390625,141.90234375)"/>
<path d="M0 0 C2.31 0.33 4.62 0.66 7 1 C7.125 3.375 7.125 3.375 7 6 C5 8 5 8 2.375 8.125 C1.59125 8.08375 0.8075 8.0425 0 8 C0 5.36 0 2.72 0 0 Z " fill="#0567B6" transform="translate(282,413)"/>
<path d="M0 0 C1.99954746 -0.04254356 4.00041636 -0.04080783 6 0 C7 1 7 1 7.125 3.5 C7 6 7 6 6 7 C4.00041636 7.04080783 1.99954746 7.04254356 0 7 C0 4.69 0 2.38 0 0 Z " fill="#1C75BD" transform="translate(336,413)"/>
<path d="M0 0 C2.00720923 0.28674418 4.0085944 0.61866701 6 1 C6 2.65 6 4.3 6 6 C3.125 6.625 3.125 6.625 0 7 C-0.66 6.34 -1.32 5.68 -2 5 C-1.46428571 1.46428571 -1.46428571 1.46428571 0 0 Z " fill="#EBEDF1" transform="translate(244,90)"/>
<path d="M0 0 C3.63 0 7.26 0 11 0 C11 0.99 11 1.98 11 3 C7.7 3 4.4 3 1 3 C0.67 2.01 0.34 1.02 0 0 Z " fill="#E7EAEE" transform="translate(208,142)"/>
<path d="M0 0 C0.66 0 1.32 0 2 0 C1.66354211 3.14027363 0.94763914 4.05098295 -1.375 6.3125 C-2.674375 7.1478125 -2.674375 7.1478125 -4 8 C-4.99 7.67 -5.98 7.34 -7 7 C-5.47005208 5.76302083 -3.94010417 4.52604167 -2.41015625 3.2890625 C-0.86733563 2.0333609 -0.86733563 2.0333609 0 0 Z " fill="#E7EAEE" transform="translate(394,157)"/>
</svg>
