<?xml version="1.0" encoding="UTF-8" standalone="no"?>
<svg
   xmlns:dc="http://purl.org/dc/elements/1.1/"
   xmlns:cc="http://creativecommons.org/ns#"
   xmlns:rdf="http://www.w3.org/1999/02/22-rdf-syntax-ns#"
   xmlns:svg="http://www.w3.org/2000/svg"
   xmlns="http://www.w3.org/2000/svg"
   viewBox="0 0 103.46667 66.213333"
   height="66.213333"
   width="103.46667"
   xml:space="preserve"
   id="svg2"
   version="1.1"><metadata
     id="metadata8"><rdf:RDF><cc:Work
         rdf:about=""><dc:format>image/svg+xml</dc:format><dc:type
           rdf:resource="http://purl.org/dc/dcmitype/StillImage" /></cc:Work></rdf:RDF></metadata><defs
     id="defs6" /><g
     transform="matrix(1.3333333,0,0,-1.3333333,0,66.213333)"
     id="g10"><g
       transform="scale(0.1)"
       id="g12"><path
         id="path14"
         style="fill:#231f20;fill-opacity:1;fill-rule:nonzero;stroke:none"
         d="m 253.941,213.152 c 0,-12.769 -9.742,-48.043 -51.07,-48.043 -36.117,0 -58.969,24.024 -58.969,62.832 0,36.625 23.356,62.832 58.969,62.832 41.156,0 50.567,-31.082 50.738,-42.335 h -17.304 c -0.676,11.253 -9.914,28.89 -33.434,28.89 -27.719,0 -41.5,-22.508 -41.5,-49.387 0,-28.554 15.121,-49.394 41.5,-49.394 25.367,0 33.262,22.012 33.938,34.605 h 17.132" /><path
         id="path16"
         style="fill:#231f20;fill-opacity:1;fill-rule:nonzero;stroke:none"
         d="m 377.418,213.152 c 0,-12.769 -9.742,-48.043 -51.07,-48.043 -36.118,0 -58.969,24.024 -58.969,62.832 0,36.625 23.351,62.832 58.969,62.832 41.156,0 50.566,-31.082 50.738,-42.335 h -17.305 c -0.676,11.253 -9.914,28.89 -33.433,28.89 -27.719,0 -41.5,-22.508 -41.5,-49.387 0,-28.554 15.125,-49.394 41.5,-49.394 25.367,0 33.261,22.012 33.933,34.605 h 17.137" /><path
         id="path18"
         style="fill:#231f20;fill-opacity:1;fill-rule:nonzero;stroke:none"
         d="m 420.586,287.914 58.977,-98.781 h 0.496 v 98.781 H 495.02 V 167.961 h -20.84 l -61.321,101.473 h -0.332 V 167.961 h -14.949 v 119.953 h 23.008" /><path
         id="path20"
         style="fill:#231f20;fill-opacity:1;fill-rule:nonzero;stroke:none"
         d="m 589.766,213.992 -21.836,56.953 h -0.332 L 544.57,213.992 Z m -11.758,73.922 48.555,-119.953 h -18.321 l -13.097,31.582 h -56.278 l -13.105,-31.582 h -17.305 l 50.742,119.953 h 18.809" /><path
         id="path22"
         style="fill:#918f90;fill-opacity:1;fill-rule:nonzero;stroke:none"
         d="M 599.121,126.398 H 179.688 v 8.711 h 419.433 v -8.711" /><path
         id="path24"
         style="fill:#918f90;fill-opacity:1;fill-rule:nonzero;stroke:none"
         d="M 668.496,319.816 H 108.418 v 8.731 h 560.078 v -8.731" /><path
         id="path26"
         style="fill:#231f20;fill-opacity:1;fill-rule:nonzero;stroke:none"
         d="m 301.184,446.113 c 0,-5.508 -4.207,-20.726 -22.036,-20.726 -15.578,0 -25.437,10.359 -25.437,27.105 0,15.801 10.074,27.11 25.437,27.11 17.762,0 21.821,-13.411 21.891,-18.27 h -7.465 c -0.293,4.859 -4.277,12.469 -14.426,12.469 -11.957,0 -17.902,-9.715 -17.902,-21.309 0,-12.32 6.524,-21.308 17.902,-21.308 10.946,0 14.352,9.496 14.641,14.929 h 7.395" /><path
         id="path28"
         style="fill:#231f20;fill-opacity:1;fill-rule:nonzero;stroke:none"
         d="m 323.668,426.617 h -7.246 v 51.746 h 7.246 v -51.746" /><path
         id="path30"
         style="fill:#231f20;fill-opacity:1;fill-rule:nonzero;stroke:none"
         d="m 379.844,463.004 c -2.321,0 -6.305,0 -7.61,0 0,6.305 -4.203,10.797 -12.39,10.723 -7.106,0 -11.453,-3.188 -11.453,-7.172 0,-5.801 6.16,-7.754 13.48,-9.785 7.25,-2.032 20.293,-4.715 20.293,-16.309 0,-8.984 -7.535,-15.074 -21.887,-15.074 -11.886,0 -21.382,6.156 -21.382,18.406 0.582,0 6.886,0 7.683,0 0,-6.301 3.988,-12.609 14.86,-12.609 8.625,0 13.042,3.332 13.042,8.046 0,5.942 -6.519,8.481 -14.855,10.801 -8.262,2.246 -18.918,4.926 -18.918,16.301 0,7.031 7.031,13.195 19.203,13.195 12.977,0 19.934,-6.957 19.934,-16.523" /><path
         id="path32"
         style="fill:#231f20;fill-opacity:1;fill-rule:nonzero;stroke:none"
         d="m 441.25,446.113 c 0,-5.508 -4.199,-20.726 -22.031,-20.726 -15.586,0 -25.442,10.359 -25.442,27.105 0,15.801 10.071,27.11 25.442,27.11 17.754,0 21.816,-13.411 21.894,-18.27 h -7.468 c -0.293,4.859 -4.282,12.469 -14.426,12.469 -11.953,0 -17.91,-9.715 -17.91,-21.309 0,-12.32 6.523,-21.308 17.91,-21.308 10.937,0 14.355,9.496 14.636,14.929 h 7.395" /><path
         id="path34"
         style="fill:#231f20;fill-opacity:1;fill-rule:nonzero;stroke:none"
         d="m 479.023,431.184 c 12.032,0 17.911,9.855 17.911,21.308 0,11.594 -5.95,21.309 -17.911,21.309 -11.953,0 -17.89,-9.715 -17.89,-21.309 0,-12.32 6.512,-21.308 17.89,-21.308 z m -25.429,21.308 c 0,16.16 9.629,27.11 25.429,27.11 15.157,0 25.45,-10.223 25.45,-27.11 0,-17.031 -10.442,-27.105 -25.45,-27.105 -15.214,0 -25.429,10.359 -25.429,27.105" /><path
         id="path36"
         style="fill:#231f20;fill-opacity:1;fill-rule:nonzero;stroke:none"
         d="m 223.355,376.113 c 0,-5.508 -4.207,-20.726 -22.031,-20.726 -15.586,0 -25.441,10.359 -25.441,27.101 0,15.805 10.074,27.114 25.441,27.114 17.758,0 21.817,-13.411 21.891,-18.27 h -7.469 c -0.293,4.859 -4.277,12.469 -14.422,12.469 -11.961,0 -17.902,-9.715 -17.902,-21.313 0,-12.316 6.519,-21.304 17.902,-21.304 10.942,0 14.352,9.496 14.637,14.929 h 7.394" /><path
         id="path38"
         style="fill:#231f20;fill-opacity:1;fill-rule:nonzero;stroke:none"
         d="m 238.594,356.617 v 51.746 h 32.832 v -6.23 H 245.84 v -15.727 h 23.699 v -6.234 H 245.84 v -17.32 h 26.168 v -6.235 h -33.414" /><path
         id="path40"
         style="fill:#231f20;fill-opacity:1;fill-rule:nonzero;stroke:none"
         d="m 294.488,402.133 v -17.324 c 6.379,0 13.914,0 13.914,0 7.395,0 10.801,3.992 10.801,8.629 0,4.64 -3.336,8.695 -10.801,8.695 0,0 -9.203,0 -13.914,0 z m 13.989,-23.555 h -13.989 v -21.961 h -7.246 v 51.746 c 11.883,0 21.02,0 21.02,0 12.898,0 18.48,-6.515 18.48,-14.855 0,-10.727 -8.336,-13.043 -10.726,-13.551 0,0 0,-0.148 12.539,-23.34 H 320 l -11.523,21.961" /><path
         id="path42"
         style="fill:#231f20;fill-opacity:1;fill-rule:nonzero;stroke:none"
         d="m 379.594,408.363 v -6.23 h -17.539 v -45.516 h -7.246 v 45.516 h -17.543 v 6.23 h 42.328" /><path
         id="path44"
         style="fill:#231f20;fill-opacity:1;fill-rule:nonzero;stroke:none"
         d="m 399.902,356.617 h -7.246 v 51.746 h 7.246 v -51.746" /><path
         id="path46"
         style="fill:#231f20;fill-opacity:1;fill-rule:nonzero;stroke:none"
         d="m 424.551,402.133 v -15.727 h 22.695 v -6.234 h -22.695 v -23.555 h -7.246 v 51.746 h 32.832 v -6.23 h -25.586" /><path
         id="path48"
         style="fill:#231f20;fill-opacity:1;fill-rule:nonzero;stroke:none"
         d="m 472.617,356.617 h -7.246 v 51.746 h 7.246 v -51.746" /><path
         id="path50"
         style="fill:#231f20;fill-opacity:1;fill-rule:nonzero;stroke:none"
         d="m 490.02,356.617 v 51.746 h 32.832 v -6.23 h -25.586 v -15.727 h 23.703 v -6.234 h -23.703 v -17.32 h 26.172 v -6.235 H 490.02" /><path
         id="path52"
         style="fill:#231f20;fill-opacity:1;fill-rule:nonzero;stroke:none"
         d="m 545.918,402.133 v -39.281 h 10.937 c 12.032,0 17.911,8.187 17.911,19.636 0,11.598 -6.016,19.645 -18.203,19.645 z m 36.387,-19.645 c 0,-17.027 -10.45,-25.871 -25.45,-25.871 h -18.183 v 51.746 h 17.891 c 15.515,0 25.742,-9.054 25.742,-25.875" /><path
         id="path54"
         style="fill:#15495d;fill-opacity:1;fill-rule:nonzero;stroke:none"
         d="M 87.0898,144.023 C 46.9141,210.84 23.2617,294.238 21.9727,381.191 17.8906,376.238 -12.5391,343.801 5.85938,272.781 52.9297,91.2109 178.926,19.2188 234.199,0 172.656,35.5742 123.262,83.8672 87.0898,144.023" /><path
         id="path56"
         style="fill:#15495d;fill-opacity:1;fill-rule:nonzero;stroke:none"
         d="M 88.7695,251.543 C 67.6953,329.57 67.1289,411.965 87.0508,496.633 81.4453,493.059 44.2383,466.426 45.0781,394.492 47.2461,208.723 144.336,101.066 191.406,64.8945 142.07,119.27 107.578,181.941 88.7695,251.543" /><path
         id="path58"
         style="fill:#15495d;fill-opacity:1;fill-rule:nonzero;stroke:none"
         d="m 688.906,144.023 c 40.176,66.817 63.809,150.215 65.117,237.168 4.082,-4.953 34.512,-37.39 16.094,-108.41 C 723.066,91.2109 597.07,19.2188 541.797,0 603.34,35.5742 652.734,83.8672 688.906,144.023" /><path
         id="path60"
         style="fill:#15495d;fill-opacity:1;fill-rule:nonzero;stroke:none"
         d="m 687.227,251.543 c 21.074,78.027 21.64,160.422 1.718,245.09 5.606,-3.574 42.793,-30.207 41.953,-102.141 C 728.75,208.723 631.641,101.066 584.59,64.8945 633.906,119.27 668.398,181.941 687.227,251.543" /></g></g></svg>